<svg width="123" height="118" viewBox="0 0 123 118" fill="none" xmlns="http://www.w3.org/2000/svg">
<path d="M59.5 114C89.8757 114 114.5 89.3757 114.5 59C114.5 28.6243 89.8757 4 59.5 4C29.1243 4 4.5 28.6243 4.5 59C4.5 89.3757 29.1243 114 59.5 114Z" fill="#FEEEEB"/>
<g style="mix-blend-mode:multiply">
<path d="M110.635 49.4469C111.311 48.2867 110.924 46.798 109.767 46.1166L104.61 43.0718C105.448 41.6506 104.53 39.5573 102.56 38.394C100.589 37.2307 98.3118 37.4394 97.4739 38.8575L92.3173 35.8126C91.1601 35.1282 89.6714 35.5088 88.9808 36.6598L77.1145 29.6523L42.1816 88.8089L87.5689 115.611L122.502 56.4544L110.635 49.4469Z" fill="#CDDFFA"/>
</g>
<path d="M121.615 52.6821L76.2285 25.8833L41.299 85.0401L86.6855 111.839L121.615 52.6821Z" fill="#912918"/>
<path d="M115.962 54.3704L77.4795 31.6479L46.9509 83.3514L85.4337 106.074L115.962 54.3704Z" fill="#F5F5F5"/>
<path d="M91.43 32.0377L108.879 42.3408C110.04 43.0259 110.426 44.5266 109.741 45.6869L107.377 49.6911L85.7196 36.9035L88.0839 32.8993C88.769 31.739 90.2697 31.3525 91.43 32.0377Z" fill="#0D1B35"/>
<path d="M103.712 39.2972C104.551 37.8769 103.633 35.7823 101.663 34.6187C99.6921 33.4551 97.4147 33.6633 96.5761 35.0836C95.7375 36.5039 96.6551 38.5985 98.6257 39.7621C100.596 40.9257 102.874 40.7175 103.712 39.2972Z" fill="#0D1B35"/>
<g style="mix-blend-mode:multiply">
<path d="M84.5754 5.7958L83.5595 4.10456C83.2679 3.61652 82.6356 3.45998 82.1475 3.75158L80.9996 4.43912C80.5115 4.73072 80.355 5.36301 80.6466 5.85105L81.6626 7.54229L84.5754 5.7958Z" fill="#CDDFFA"/>
<path d="M85.1897 7.48082L85.4199 7.3427C85.4997 7.29359 85.5274 7.18923 85.4782 7.10942L84.7477 5.89087C84.6986 5.81107 84.5943 5.78344 84.5145 5.83255L81.7244 7.50538C81.6446 7.55449 81.6169 7.65885 81.666 7.73865L82.3966 8.9572C82.4457 9.03701 82.55 9.06463 82.6298 9.01552L85.1897 7.48082Z" fill="#CDDFFA"/>
<path d="M111.006 51.8002L109.825 47.9021L85.4812 7.30615L82.8599 8.87769L82.5684 9.05264L106.915 49.6455L109.855 52.5798L111.847 54.5688L111.006 51.7972V51.8002Z" fill="#CDDFFA"/>
</g>
<path d="M107.252 48.9713L110.203 47.2939L86.8145 6.13932L83.8631 7.81665L107.252 48.9713Z" fill="#FFC82E"/>
<path d="M83.9213 7.78478L86.7526 6.17569C86.8337 6.12963 86.8621 6.02657 86.816 5.94551L86.1123 4.7073C86.0662 4.62624 85.9632 4.59787 85.8821 4.64394L83.0508 6.25302C82.9697 6.29909 82.9414 6.40215 82.9874 6.4832L83.6911 7.72142C83.7372 7.80248 83.8402 7.83084 83.9213 7.78478Z" fill="#FFF4E9"/>
<path d="M85.9434 4.60986L82.9919 6.28719L82.0168 4.5713C81.7362 4.07762 81.909 3.44985 82.4027 3.16928L83.5662 2.50806C84.0599 2.22749 84.6876 2.40029 84.9682 2.89398L85.9434 4.60986Z" fill="#C43820"/>
<path d="M109.453 47.801L109.944 47.522L86.5194 6.30331L86.0283 6.58236L109.453 47.801Z" fill="#FFB31A"/>
<path d="M108.519 48.3318L109.01 48.0527L85.5848 6.83407L85.0938 7.11312L108.519 48.3318Z" fill="#FFB31A"/>
<path d="M107.591 48.8802L108.082 48.6011L84.6499 7.3865L84.1589 7.66563L107.591 48.8802Z" fill="#FFB31A"/>
<path d="M107.256 48.9762C107.501 48.8381 107.333 48.5403 107.581 48.4022C107.827 48.2641 107.996 48.5588 108.241 48.4176C108.487 48.2794 108.318 47.9817 108.563 47.8436C108.809 47.7055 108.978 48.0001 109.223 47.8589C109.469 47.7208 109.3 47.4231 109.546 47.285C109.791 47.1468 109.96 47.4415 110.206 47.3003L111.295 51.223L112.069 54.0131L110.126 51.9781L107.256 48.9762Z" fill="#FFF4E9"/>
<path d="M110.125 51.9782C110.266 51.7511 110.46 51.5608 110.69 51.4288C110.874 51.3214 111.083 51.2508 111.294 51.2231L112.068 54.0132L110.125 51.9782Z" fill="#0D1B35"/>
<g style="mix-blend-mode:multiply">
<path d="M63.9384 12.8664L45.6172 69.4888L87.7605 83.1251L106.082 26.5027L63.9384 12.8664Z" fill="#CDDFFA"/>
</g>
<path d="M104.967 23.9244L62.8232 10.2881L44.502 66.9104L86.6453 80.5467L104.967 23.9244Z" fill="white"/>
<path d="M75.0758 18.9098L64.1631 15.3076L60.3877 26.7452L71.3004 30.3474L75.0758 18.9098Z" fill="#DBDBDB"/>
<mask id="mask0_17525_83197" style="mask-type:luminance" maskUnits="userSpaceOnUse" x="60" y="15" width="16" height="16">
<path d="M75.0758 18.9098L64.1631 15.3076L60.4243 26.6343L71.337 30.2365L75.0758 18.9098Z" fill="white"/>
</mask>
<g mask="url(#mask0_17525_83197)">
</g>
<g clip-path="url(#clip0_17525_83197)">
<path d="M68.1307 23.2631C68.3165 23.324 68.5165 23.2227 68.5774 23.0369C68.6383 22.851 68.5369 22.6511 68.3511 22.5902C68.1653 22.5293 67.9653 22.6306 67.9044 22.8164C67.8436 23.0023 67.9449 23.2023 68.1307 23.2631Z" fill="#292929"/>
<path d="M68.3467 21.5396C68.3467 21.5396 69.4907 21.3952 69.3442 22.2076C69.1813 23.1504 68.0809 22.8454 68.0809 22.8454L68.3467 21.5396Z" fill="white"/>
<path d="M69.0125 21.8518C69.0206 21.8468 69.0302 21.8448 69.0396 21.8461C69.049 21.8473 69.0576 21.8519 69.0641 21.8588C69.0994 21.8925 69.1274 21.9331 69.1462 21.9781C69.165 22.0231 69.1743 22.0715 69.1734 22.1203C69.1664 22.2022 69.129 22.2785 69.0685 22.3341C69.0601 22.3413 69.0491 22.3448 69.0381 22.3439C69.0271 22.343 69.0169 22.3378 69.0097 22.3294C69.0026 22.3209 68.999 22.31 68.9999 22.299C69.0008 22.288 69.0061 22.2778 69.0145 22.2706C69.0584 22.2294 69.0857 22.1735 69.0912 22.1135C69.0909 22.076 69.0829 22.0389 69.0677 22.0046C69.0525 21.9702 69.0305 21.9393 69.003 21.9138C68.9993 21.9098 68.9964 21.9051 68.9945 21.9001C68.9926 21.895 68.9918 21.8896 68.992 21.8842C68.9922 21.8788 68.9935 21.8734 68.9957 21.8685C68.998 21.8636 69.0012 21.8592 69.0052 21.8555L69.0125 21.8518Z" fill="#292929"/>
<path d="M71.3201 30.7883C70.6964 31.2592 69.6941 30.0525 68.9441 30.272C68.8945 30.2882 68.5804 29.9653 68.531 29.9771C67.4597 30.2641 66.8874 29.7215 65.8127 29.4472C64.738 29.1729 63.7519 28.6268 62.9491 27.8615L62.8494 27.7627C62.1656 27.0805 60.6758 27.6913 60.3541 26.7806C60.8902 26.1262 62.5882 24.1537 63.5681 24.018C66.0694 23.6724 69.1364 24.8795 70.2461 26.064C70.9275 26.7924 71.2096 30.1683 71.3201 30.7883Z" fill="#C2C2C2"/>
<path d="M69.0449 20.7829C69.0449 20.7829 70.0486 19.9449 70.0648 19.45C70.0811 18.9551 69.3461 19.2044 69.3461 19.2044C69.3461 19.2044 69.5319 18.1918 68.7457 18.1429C67.7022 18.0782 66.1912 19.4589 66.1912 19.4589C66.1912 19.4589 65.7413 19.1759 65.4321 19.55C65.0759 19.9876 65.0607 20.6039 65.2071 21.2032C65.3536 21.8024 66.3242 21.6667 66.3242 21.6667L69.0449 20.7829Z" fill="#292929"/>
<path d="M65.9167 23.1402L65.5722 24.3078C65.8229 24.5472 66.1248 24.7263 66.455 24.8318C67.1675 25.0477 67.4972 24.8114 67.4972 24.8114L67.9249 23.2918L65.9167 23.1402Z" fill="white"/>
<path d="M65.9242 23.1166C65.9242 23.1166 66.0878 24.1312 66.9338 24.2421C67.618 24.3305 67.8898 23.4118 67.8898 23.4118L65.9242 23.1166Z" fill="#292929"/>
<path d="M67.6162 22.6644C67.6162 22.6644 68.4279 22.6038 68.7629 21.8266C69.0329 21.198 68.4228 20.8621 68.4228 20.8621L67.6162 22.6644Z" fill="#292929"/>
<path d="M65.4633 22.6145C65.7361 22.7038 66.0297 22.5551 66.1191 22.2823C66.2084 22.0095 66.0597 21.716 65.7869 21.6266C65.5141 21.5373 65.2205 21.686 65.1312 21.9588C65.0418 22.2316 65.1906 22.5251 65.4633 22.6145Z" fill="#292929"/>
<path d="M65.7692 22.8763C65.9642 22.9401 66.174 22.8339 66.2378 22.6389C66.3017 22.444 66.1954 22.2342 66.0005 22.1703C65.8055 22.1065 65.5957 22.2127 65.5318 22.4077C65.468 22.6026 65.5743 22.8124 65.7692 22.8763Z" fill="#292929"/>
<path d="M69.0448 20.7839C69.0448 20.7839 68.7395 22.9095 68.1289 23.5802C67.4452 24.332 66.4137 23.8582 66.1303 23.4766C65.85 23.2121 65.5784 22.6425 65.5465 22.2277C65.5465 22.2277 65.0655 22.0483 65.0762 21.6204C65.087 21.1925 65.2982 20.875 65.6435 20.9428C65.9888 21.0107 66.0596 21.1223 66.0596 21.1223L66.2434 20.2441C66.2434 20.2441 68.9314 18.5518 69.0448 20.7839Z" fill="white"/>
<path d="M66.0841 21.0717C66.4301 21.1652 66.7973 21.1408 67.1278 21.0022C67.8452 20.7355 68.0011 19.9567 68.0011 19.9567C68.0011 19.9567 68.8441 20.892 68.8455 21.7603C68.847 22.6285 69.7145 19.9666 68.5344 19.6866C67.3544 19.4065 65.5727 19.6543 66.0841 21.0717Z" fill="#292929"/>
<path d="M65.9934 20.8223C65.9934 20.8223 66.0387 21.6016 66.1383 21.5999C66.2378 21.5982 66.403 20.432 66.1505 20.3116C65.8979 20.1912 65.9934 20.8223 65.9934 20.8223Z" fill="#292929"/>
<path d="M63.4013 27.2395L62.997 27.9705L62.8918 27.8777L63.2821 27.1713C63.2865 27.1632 63.2925 27.1561 63.2997 27.1504C63.3068 27.1446 63.3151 27.1403 63.3239 27.1378C63.3328 27.1353 63.342 27.1345 63.3511 27.1356C63.3603 27.1367 63.3691 27.1396 63.3771 27.1441C63.3851 27.1486 63.3922 27.1547 63.3978 27.162C63.4034 27.1693 63.4074 27.1777 63.4097 27.1866C63.4119 27.1955 63.4123 27.2048 63.4109 27.2139C63.4095 27.223 63.4062 27.2317 63.4013 27.2395Z" fill="#5C5B5B"/>
<path d="M65.2923 21.3613C65.2853 21.3549 65.2808 21.3462 65.2795 21.3368C65.2782 21.3274 65.2801 21.3179 65.2851 21.3098C65.3078 21.2666 65.3393 21.2286 65.3775 21.1983C65.4156 21.1679 65.4597 21.1458 65.5069 21.1333C65.5876 21.1177 65.6712 21.133 65.7412 21.176C65.7504 21.1822 65.7567 21.1917 65.7589 21.2026C65.761 21.2134 65.7588 21.2247 65.7526 21.2339C65.7465 21.243 65.7369 21.2494 65.7261 21.2515C65.7152 21.2537 65.704 21.2514 65.6948 21.2453C65.6432 21.2143 65.582 21.2032 65.5228 21.2143C65.4867 21.2248 65.4532 21.2426 65.4243 21.2666C65.3954 21.2905 65.3717 21.3201 65.3546 21.3535C65.3518 21.3582 65.3481 21.3622 65.3437 21.3654C65.3393 21.3686 65.3344 21.3709 65.3291 21.3722C65.3239 21.3735 65.3184 21.3737 65.313 21.3729C65.3077 21.372 65.3026 21.3701 65.2979 21.3673L65.2923 21.3613Z" fill="#292929"/>
<path d="M65.1561 24.4209L65.435 25.1559C65.4743 25.2593 65.5848 25.3169 65.692 25.2899L66.2785 25.142C66.4131 25.108 66.5559 25.1403 66.6628 25.2287L67.2194 25.6891C67.3206 25.7729 67.4724 25.7486 67.5425 25.6374L67.9496 24.992" stroke="#5C5B5B" stroke-width="0.10894" stroke-linecap="round"/>
</g>
<path d="M77.288 20.6553L76.9365 21.7417L94.7914 27.519L95.1429 26.4326L77.288 20.6553Z" fill="#424242"/>
<path d="M75.8906 24.9722L75.5391 26.0586L97.5496 33.1805L97.9011 32.0942L75.8906 24.9722Z" fill="#424242"/>
<path d="M76.5537 22.9278L76.2021 24.0142L87.1592 27.5595L87.5108 26.4732L76.5537 22.9278Z" fill="#424242"/>
<path d="M88.8388 26.9L88.4873 27.9863L99.4444 31.5317L99.7959 30.4453L88.8388 26.9Z" fill="#424242"/>
<path d="M75.2275 27.0181L74.876 28.1045L80.9619 30.0737L81.3135 28.9874L75.2275 27.0181Z" fill="#424242"/>
<path d="M91.7265 34.6187L91.375 35.7051L97.461 37.6743L97.8125 36.5879L91.7265 34.6187Z" fill="#424242"/>
<path d="M74.5654 29.0655L74.2139 30.1519L89.496 35.0967L89.8475 34.0103L74.5654 29.0655Z" fill="#424242"/>
<path d="M82.5468 29.3887L82.1953 30.4751L98.1199 35.6278L98.4714 34.5414L82.5468 29.3887Z" fill="#424242"/>
<path d="M60.9581 35.9203C59.8838 35.5734 59.2914 34.4132 59.6382 33.3389C59.9851 32.2646 61.1453 31.6722 62.2196 32.0191C63.2939 32.3659 63.8863 33.5262 63.5394 34.6004C63.1926 35.6778 62.0323 36.2671 60.9581 35.9203ZM62.0753 32.4703C61.2466 32.2032 60.3565 32.6575 60.0894 33.4863C59.8224 34.315 60.2767 35.2051 61.1054 35.4722C61.9341 35.7392 62.8243 35.2849 63.0913 34.4562C63.3583 33.6274 62.9041 32.7373 62.0753 32.4703Z" fill="#C2C2C2"/>
<path d="M61.3667 34.6617C61.3083 34.6433 61.2562 34.6003 61.2285 34.542L60.6454 33.3756C60.587 33.259 60.6331 33.1178 60.7497 33.0564C60.8663 32.9981 61.0075 33.0441 61.0689 33.1608L61.5539 34.1307L64.2396 33.0135C64.3593 32.9643 64.4975 33.0196 64.5496 33.1424C64.5987 33.2621 64.5435 33.4002 64.4207 33.4524L61.5293 34.6525C61.4741 34.674 61.4188 34.6771 61.3667 34.6587V34.6617Z" fill="#5C5B5B"/>
<path d="M66.357 33.8549L66.168 34.439L94.3317 43.5519L94.5206 42.9678L66.357 33.8549Z" fill="#5C5B5B"/>
<path d="M74.9917 37.9814L74.8027 38.5654L93.9455 44.7594L94.1345 44.1754L74.9917 37.9814Z" fill="#5C5B5B"/>
<path d="M65.5757 36.2675L65.3867 36.8516L82.7627 42.4739L82.9517 41.8898L65.5757 36.2675Z" fill="#5C5B5B"/>
<path d="M73.9481 37.6407L65.9727 35.0601L65.7837 35.6441L73.7591 38.2247L73.9481 37.6407Z" fill="#5C5B5B"/>
<path d="M93.7436 45.3822L83.8115 42.1685L83.6225 42.7525L93.5546 45.9662L93.7436 45.3822Z" fill="#5C5B5B"/>
<path d="M58.7354 42.7928C57.6611 42.446 57.0687 41.2858 57.4156 40.2115C57.7624 39.1372 58.9226 38.5448 59.9969 38.8916C61.0712 39.2385 61.6636 40.3987 61.3168 41.473C60.9699 42.5504 59.8097 43.1397 58.7354 42.7928ZM59.8527 39.3428C59.0239 39.0758 58.1338 39.5301 57.8668 40.3588C57.5997 41.1875 58.054 42.0777 58.8827 42.3447C59.7115 42.6118 60.6016 42.1575 60.8686 41.3287C61.1357 40.5 60.6814 39.6099 59.8527 39.3428Z" fill="#C2C2C2"/>
<path d="M59.144 41.5343C59.0857 41.5159 59.0335 41.4729 59.0059 41.4146L58.4227 40.2482C58.3644 40.1316 58.4104 39.9904 58.5271 39.929C58.6437 39.8707 58.7849 39.9167 58.8463 40.0333L59.3312 41.0033L62.017 39.886C62.1367 39.8369 62.2748 39.8921 62.327 40.0149C62.3761 40.1346 62.3208 40.2728 62.1981 40.3249L59.3067 41.5251C59.2514 41.5466 59.1962 41.5496 59.144 41.5312V41.5343Z" fill="#5C5B5B"/>
<path d="M64.1363 40.7245L63.9473 41.3086L92.111 50.4215L92.2999 49.8374L64.1363 40.7245Z" fill="#5C5B5B"/>
<path d="M72.7671 44.851L72.5781 45.4351L91.7209 51.6291L91.9099 51.045L72.7671 44.851Z" fill="#5C5B5B"/>
<path d="M63.357 43.1464L63.168 43.7305L80.5439 49.3528L80.7329 48.7687L63.357 43.1464Z" fill="#5C5B5B"/>
<path d="M71.7254 44.5142L63.75 41.9336L63.561 42.5177L71.5364 45.0983L71.7254 44.5142Z" fill="#5C5B5B"/>
<path d="M91.518 52.2547L81.5859 49.041L81.397 49.6251L91.329 52.8388L91.518 52.2547Z" fill="#5C5B5B"/>
<path d="M56.5108 49.662C55.4365 49.3151 54.8441 48.1549 55.191 47.0806C55.5378 46.0063 56.698 45.4139 57.7723 45.7608C58.8466 46.1076 59.439 47.2679 59.0922 48.3421C58.7453 49.4195 57.5851 50.0088 56.5108 49.662ZM57.6281 46.212C56.7993 45.9449 55.9092 46.3992 55.6422 47.2279C55.3751 48.0567 55.8294 48.9468 56.6581 49.2139C57.4869 49.4809 58.377 49.0266 58.644 48.1979C58.9111 47.3691 58.4568 46.479 57.6281 46.212Z" fill="#C2C2C2"/>
<path d="M56.9194 48.4034C56.8611 48.385 56.8089 48.342 56.7813 48.2837L56.1981 47.1173C56.1398 47.0007 56.1858 46.8595 56.3024 46.7981C56.4191 46.7398 56.5603 46.7858 56.6217 46.9025L57.1066 47.8724L59.7924 46.7551C59.9121 46.706 60.0502 46.7613 60.1024 46.8841C60.1515 47.0038 60.0962 47.1419 59.9735 47.1941L57.0821 48.3942C57.0268 48.4157 56.9716 48.4188 56.9194 48.4003V48.4034Z" fill="#5C5B5B"/>
<path d="M61.9146 47.5971L61.7256 48.1812L89.8893 57.2941L90.0783 56.71L61.9146 47.5971Z" fill="#5C5B5B"/>
<path d="M70.5386 51.7226L70.3496 52.3066L89.4924 58.5007L89.6814 57.9166L70.5386 51.7226Z" fill="#5C5B5B"/>
<path d="M61.1294 50.0126L60.9404 50.5967L78.3164 56.219L78.5054 55.6349L61.1294 50.0126Z" fill="#5C5B5B"/>
<path d="M69.4998 51.3868L61.5244 48.8062L61.3354 49.3902L69.3109 51.9708L69.4998 51.3868Z" fill="#5C5B5B"/>
<path d="M89.2953 59.1278L79.3633 55.9141L79.1743 56.4981L89.1063 59.7118L89.2953 59.1278Z" fill="#5C5B5B"/>
<path d="M87.9551 63.2714L62.3467 54.9854L62.1123 55.7096L87.7207 63.9957L87.9551 63.2714Z" fill="#757575"/>
<path d="M87.3859 65.0419L52.9844 53.9106L52.75 54.6349L87.1515 65.7662L87.3859 65.0419Z" fill="#757575"/>
<path d="M72.7308 62.2589L52.4111 55.6841L52.1768 56.4083L72.4965 62.9832L72.7308 62.2589Z" fill="#757575"/>
<path d="M86.2384 68.5815L51.8369 57.4502L51.6026 58.1744L86.0041 69.3057L86.2384 68.5815Z" fill="#757575"/>
<path d="M85.6656 70.3526L70.2988 65.3804L70.0645 66.1046L85.4313 71.0768L85.6656 70.3526Z" fill="#757575"/>
<path d="M85.0939 72.121L50.6924 60.9897L50.458 61.714L84.8596 72.8453L85.0939 72.121Z" fill="#757575"/>
<path d="M75.1318 70.8526L50.1191 62.7593L49.8848 63.4835L74.8975 71.5768L75.1318 70.8526Z" fill="#757575"/>
<path d="M84.5246 73.8909L76.6631 71.3472L76.4287 72.0714L84.2903 74.6152L84.5246 73.8909Z" fill="#757575"/>
<path d="M67.7266 64.5454L51.2676 59.2197L51.0332 59.944L67.4922 65.2696L67.7266 64.5454Z" fill="#757575"/>
<path d="M86.8114 66.8142L74.2598 62.7529L74.0254 63.4772L86.577 67.5385L86.8114 66.8142Z" fill="#757575"/>
<g style="mix-blend-mode:multiply">
<path d="M46.9115 40.5146L6.29785 59.2808L31.5103 113.846L72.1239 95.0794L46.9115 40.5146Z" fill="white"/>
</g>
<g style="mix-blend-mode:multiply">
<path d="M44.6947 44.7251L4.08105 63.4912L29.2935 118.056L69.9071 99.2899L44.6947 44.7251Z" fill="#CDDFFA"/>
</g>
<path d="M45.6947 42.7251L5.08105 61.4912L30.2935 116.056L70.9071 97.2899L45.6947 42.7251Z" fill="white"/>
<path d="M21.2621 81.7838C20.2247 82.2627 18.9908 81.8084 18.512 80.7709C18.0331 79.7335 18.4874 78.5026 19.5249 78.0207C20.5623 77.5419 21.7931 77.9962 22.275 79.0336C22.7539 80.0711 22.2996 81.305 21.2652 81.7838H21.2621ZM19.7244 78.4566C18.9263 78.8249 18.5795 79.7734 18.9478 80.5714C19.3161 81.3695 20.2646 81.7163 21.0626 81.348C21.8607 80.9797 22.2075 80.0312 21.8392 79.2332C21.4709 78.4351 20.5224 78.0883 19.7244 78.4566Z" fill="#C2C2C2"/>
<path d="M20.7034 80.5713C20.6482 80.5959 20.5807 80.602 20.5193 80.5774L19.2884 80.114C19.1657 80.0679 19.1012 79.9298 19.1503 79.807C19.1964 79.6842 19.3345 79.6198 19.4573 79.6689L20.4824 80.0556L21.7102 77.3853C21.7655 77.2656 21.9066 77.2134 22.0264 77.2686C22.1461 77.3239 22.1982 77.4651 22.143 77.5848L20.8201 80.4577C20.7955 80.5099 20.7526 80.5529 20.7034 80.5744V80.5713Z" fill="#5C5B5B"/>
<path d="M51.0002 64.006L23.8613 76.5459L24.1214 77.1087L51.2603 64.5688L51.0002 64.006Z" fill="#5C5B5B"/>
<path d="M51.5364 65.1703L33.0908 73.6934L33.3509 74.2562L51.7964 65.7332L51.5364 65.1703Z" fill="#5C5B5B"/>
<path d="M41.6767 71.1357L24.9336 78.8721L25.1937 79.4349L41.9367 71.6985L41.6767 71.1357Z" fill="#5C5B5B"/>
<path d="M32.0822 74.1596L24.3975 77.7104L24.6575 78.2733L32.3422 74.7225L32.0822 74.1596Z" fill="#5C5B5B"/>
<path d="M52.075 66.3349L42.5039 70.7573L42.764 71.3202L52.335 66.8977L52.075 66.3349Z" fill="#5C5B5B"/>
<path d="M24.3227 88.4044C23.2852 88.8833 22.0544 88.429 21.5725 87.3915C21.0937 86.3541 21.5479 85.1232 22.5854 84.6414C23.6229 84.1625 24.8537 84.6168 25.3356 85.6543C25.8144 86.6917 25.3601 87.9256 24.3258 88.4044H24.3227ZM22.7849 85.0772C21.9869 85.4455 21.64 86.394 22.0084 87.192C22.3767 87.9901 23.3251 88.3369 24.1232 87.9686C24.9212 87.6003 25.2681 86.6518 24.8997 85.8538C24.5314 85.0557 23.583 84.7089 22.7849 85.0772Z" fill="#C2C2C2"/>
<path d="M23.764 87.1919C23.7087 87.2165 23.6412 87.2226 23.5798 87.198L22.349 86.7346C22.2262 86.6885 22.1618 86.5504 22.2109 86.4276C22.2569 86.3048 22.395 86.2404 22.5178 86.2895L23.543 86.6762L24.7708 84.0059C24.826 83.8862 24.9672 83.834 25.0869 83.8892C25.2066 83.9445 25.2588 84.0857 25.2035 84.2054L23.8806 87.0783C23.8561 87.1305 23.8131 87.1735 23.764 87.195V87.1919Z" fill="#5C5B5B"/>
<path d="M54.0578 70.629L26.9189 83.1689L27.179 83.7318L54.3179 71.1919L54.0578 70.629Z" fill="#5C5B5B"/>
<path d="M54.5979 71.7934L36.1523 80.3164L36.4124 80.8793L54.858 72.3562L54.5979 71.7934Z" fill="#5C5B5B"/>
<path d="M44.74 77.7574L27.9941 85.4951L28.2542 86.058L45.0001 78.3203L44.74 77.7574Z" fill="#5C5B5B"/>
<path d="M35.1417 80.7797L27.457 84.3306L27.7171 84.8934L35.4018 81.3426L35.1417 80.7797Z" fill="#5C5B5B"/>
<path d="M55.1345 72.955L45.5635 77.3774L45.8235 77.9403L55.3946 73.5178L55.1345 72.955Z" fill="#5C5B5B"/>
<path d="M27.3823 95.0278C26.3448 95.5067 25.1109 95.0524 24.6321 94.0149C24.1532 92.9775 24.6075 91.7466 25.645 91.2647C26.6824 90.7829 27.9133 91.2402 28.3952 92.2776C28.874 93.3151 28.4197 94.549 27.3853 95.0278H27.3823ZM25.8445 91.7006C25.0464 92.0689 24.6996 93.0174 25.0679 93.8154C25.4363 94.6135 26.3847 94.9603 27.1827 94.592C27.9808 94.2237 28.3276 93.2752 27.9593 92.4772C27.591 91.6791 26.6425 91.3323 25.8445 91.7006Z" fill="#C2C2C2"/>
<path d="M26.8236 93.8154C26.7683 93.84 26.7008 93.8461 26.6394 93.8216L25.4086 93.3581C25.2858 93.3121 25.2213 93.1739 25.2704 93.0512C25.3165 92.9284 25.4546 92.8639 25.5774 92.913L26.6026 93.2998L27.8303 90.6294C27.8856 90.5097 28.0268 90.4575 28.1465 90.5128C28.2662 90.568 28.3184 90.7092 28.2631 90.8289L26.9402 93.7019C26.9156 93.7541 26.8727 93.797 26.8236 93.8185V93.8154Z" fill="#5C5B5B"/>
<path d="M57.1184 77.2521L29.9795 89.792L30.2396 90.3548L57.3785 77.8149L57.1184 77.2521Z" fill="#5C5B5B"/>
<path d="M57.6584 78.4169L39.2129 86.9399L39.473 87.5028L57.9185 78.9797L57.6584 78.4169Z" fill="#5C5B5B"/>
<path d="M47.7968 84.3793L31.0537 92.1157L31.3138 92.6786L48.0569 84.9422L47.7968 84.3793Z" fill="#5C5B5B"/>
<path d="M38.2023 87.4033L30.5176 90.9541L30.7776 91.5169L38.4624 87.9661L38.2023 87.4033Z" fill="#5C5B5B"/>
<path d="M58.1931 79.5795L48.6221 84.002L48.8821 84.5648L58.4532 80.1423L58.1931 79.5795Z" fill="#5C5B5B"/>
<path d="M60.0419 83.574L35.3633 94.9771L35.6851 95.6736L60.3637 84.2705L60.0419 83.574Z" fill="#757575"/>
<path d="M60.8305 85.2789L27.6787 100.597L28.0006 101.294L61.1524 85.9755L60.8305 85.2789Z" fill="#757575"/>
<path d="M48.0473 93.2557L28.4678 102.303L28.7896 102.999L48.3692 93.9523L48.0473 93.2557Z" fill="#757575"/>
<path d="M62.4077 88.69L29.2559 104.008L29.5777 104.705L62.7295 89.3866L62.4077 88.69Z" fill="#757575"/>
<path d="M63.1941 90.3959L48.3848 97.2388L48.7066 97.9354L63.516 91.0925L63.1941 90.3959Z" fill="#757575"/>
<path d="M63.9809 92.1011L30.8291 107.419L31.151 108.116L64.3028 92.7977L63.9809 92.1011Z" fill="#757575"/>
<path d="M55.7237 97.9857L31.6191 109.124L31.941 109.82L56.0456 98.6822L55.7237 97.9857Z" fill="#757575"/>
<path d="M64.7704 93.8041L57.1943 97.3047L57.5162 98.0013L65.0922 94.5006L64.7704 93.8041Z" fill="#757575"/>
<path d="M45.9066 98.3853L30.0439 105.715L30.3658 106.411L46.2284 99.0819L45.9066 98.3853Z" fill="#757575"/>
<path d="M61.616 86.9848L49.5205 92.5737L49.8424 93.2703L61.9379 87.6814L61.616 86.9848Z" fill="#757575"/>
<path d="M40.1265 51.3155L22.9209 59.2656L23.405 60.3133L40.6106 52.3632L40.1265 51.3155Z" fill="#424242"/>
<path d="M46.0533 53.627L24.8438 63.4272L25.3278 64.4749L46.5374 54.6747L46.0533 53.627Z" fill="#424242"/>
<path d="M34.4918 56.5746L23.9316 61.4541L24.4157 62.5018L34.9759 57.6223L34.4918 56.5746Z" fill="#424242"/>
<path d="M46.3327 51.1019L35.7725 55.9814L36.2565 57.0291L46.8168 52.1496L46.3327 51.1019Z" fill="#424242"/>
<path d="M31.6221 62.6878L25.7568 65.3979L26.2409 66.4456L32.1062 63.7355L31.6221 62.6878Z" fill="#424242"/>
<path d="M49.0654 57.0194L43.2002 59.7295L43.6843 60.7772L49.5495 58.067L49.0654 57.0194Z" fill="#424242"/>
<path d="M41.3928 60.5654L26.667 67.3696L27.1511 68.4173L41.8769 61.613L41.3928 60.5654Z" fill="#424242"/>
<path d="M48.1577 55.0488L32.8105 62.1401L33.2946 63.1878L48.6418 56.0964L48.1577 55.0488Z" fill="#424242"/>
<path d="M19.4701 58.229L9.03809 63.0493L14.0902 73.9831L24.5223 69.1629L19.4701 58.229Z" fill="#F5F5F5"/>
<g clip-path="url(#clip1_17525_83197)">
<path d="M17.3696 66.1516C17.5469 66.0691 17.6238 65.8586 17.5414 65.6812C17.4589 65.5039 17.2484 65.427 17.0711 65.5094C16.8937 65.5919 16.8168 65.8024 16.8992 65.9798C16.9817 66.1571 17.1922 66.234 17.3696 66.1516Z" fill="#292929"/>
<path d="M16.3493 64.7451C16.3493 64.7451 17.0865 63.8583 17.5342 64.552C18.059 65.3519 17.0468 65.8805 17.0468 65.8805L16.3493 64.7451Z" fill="white"/>
<path d="M17.0504 64.5184C17.0529 64.5093 17.0586 64.5013 17.0663 64.4958C17.074 64.4903 17.0834 64.4877 17.0929 64.4884C17.1417 64.4888 17.1899 64.4994 17.2343 64.5194C17.2788 64.5395 17.3187 64.5685 17.3513 64.6048C17.4022 64.6693 17.4269 64.7506 17.4207 64.8326C17.4194 64.8436 17.4139 64.8536 17.4052 64.8605C17.3965 64.8673 17.3855 64.8705 17.3745 64.8692C17.3635 64.868 17.3535 64.8624 17.3466 64.8537C17.3398 64.8451 17.3366 64.834 17.3379 64.8231C17.3418 64.763 17.3236 64.7035 17.2867 64.656C17.2608 64.6287 17.2296 64.6071 17.1951 64.5924C17.1606 64.5776 17.1234 64.5701 17.0858 64.5702C17.0804 64.5698 17.0751 64.5684 17.0703 64.566C17.0654 64.5636 17.0611 64.5602 17.0576 64.5561C17.054 64.552 17.0513 64.5473 17.0496 64.5421C17.0479 64.537 17.0473 64.5316 17.0477 64.5262L17.0504 64.5184Z" fill="#292929"/>
<path d="M24.8371 69.4715C24.7031 70.2414 23.1469 70.0443 22.7487 70.7168C22.7236 70.7625 22.2736 70.7411 22.2457 70.7835C21.6589 71.7247 20.8703 71.7191 19.8979 72.2526C18.9255 72.786 17.8322 73.0605 16.7231 73.0496L16.5828 73.0455C15.6174 73.014 14.9462 74.4776 14.0892 74.0319C14.034 73.1878 13.9276 70.5872 14.5508 69.819C16.1421 67.8585 19.2069 66.646 20.8265 66.7536C21.8217 66.8204 24.3331 69.0941 24.8371 69.4715Z" fill="#C2C2C2"/>
<path d="M16.3438 63.715C16.3438 63.715 16.5048 62.4174 16.1787 62.0448C15.8526 61.6721 15.4858 62.3562 15.4858 62.3562C15.4858 62.3562 14.9301 61.4896 14.3224 61.9906C13.5159 62.6559 13.3548 64.6964 13.3548 64.6964C13.3548 64.6964 12.8329 64.7969 12.8625 65.2814C12.9011 65.8443 13.3108 66.3049 13.827 66.6427C14.3432 66.9804 14.9596 66.2186 14.9596 66.2186L16.3438 63.715Z" fill="#292929"/>
<path d="M15.6676 67.5738L16.2132 68.6621C16.5599 68.6658 16.9028 68.5905 17.216 68.442C17.8839 68.1132 17.9635 67.7155 17.9635 67.7155L17.2383 66.3133L15.6676 67.5738Z" fill="white"/>
<path d="M15.6572 67.5514C15.6572 67.5514 16.4696 68.181 17.1634 67.6842C17.7236 67.2816 17.2948 66.4248 17.2948 66.4248L15.6572 67.5514Z" fill="#292929"/>
<path d="M16.5851 66.0654C16.5851 66.0654 17.1367 65.4669 16.8507 64.6703C16.6187 64.0267 15.9436 64.198 15.9436 64.198L16.5851 66.0654Z" fill="#292929"/>
<path d="M14.9779 67.4989C15.2382 67.3779 15.3511 67.0688 15.2301 66.8085C15.1091 66.5482 14.8 66.4353 14.5397 66.5563C14.2794 66.6773 14.1665 66.9864 14.2875 67.2467C14.4085 67.507 14.7176 67.6199 14.9779 67.4989Z" fill="#292929"/>
<path d="M15.3795 67.4814C15.5655 67.395 15.6462 67.174 15.5597 66.988C15.4733 66.802 15.2524 66.7213 15.0663 66.8078C14.8803 66.8943 14.7996 67.1152 14.8861 67.3012C14.9725 67.4872 15.1935 67.5679 15.3795 67.4814Z" fill="#292929"/>
<path d="M16.344 63.7163C16.344 63.7163 17.5724 65.4777 17.5844 66.3846C17.5982 67.4007 16.5212 67.7589 16.0536 67.6737C15.6682 67.6718 15.0808 67.4412 14.7742 67.16C14.7742 67.16 14.3004 67.3574 14.016 67.0374C13.7317 66.7175 13.6691 66.3412 13.9677 66.155C14.2664 65.9688 14.3943 66.002 14.3943 66.002L13.9289 65.2349C13.9289 65.2349 14.737 62.1631 16.344 63.7163Z" fill="white"/>
<path d="M14.3779 65.9485C14.6945 65.7806 14.9461 65.5119 15.0929 65.1851C15.4349 64.5003 15.017 63.8249 15.017 63.8249C15.017 63.8249 16.2715 63.9326 16.8655 64.5659C17.4594 65.1992 16.2755 62.6622 15.2221 63.2634C14.1688 63.8646 13.0364 65.2623 14.3779 65.9485Z" fill="#292929"/>
<path d="M14.1402 65.8283C14.1402 65.8283 14.7054 66.3667 14.777 66.2975C14.8486 66.2283 14.1729 65.2635 13.9062 65.348C13.6395 65.4325 14.1402 65.8283 14.1402 65.8283Z" fill="#292929"/>
<path d="M16.6295 72.2864L16.8334 73.0964L16.6931 73.1005L16.4959 72.3179C16.4936 72.309 16.4931 72.2997 16.4944 72.2906C16.4957 72.2815 16.4988 72.2728 16.5035 72.2649C16.5083 72.257 16.5145 72.2501 16.5219 72.2447C16.5293 72.2392 16.5377 72.2353 16.5467 72.2331C16.5556 72.231 16.5649 72.2306 16.574 72.2321C16.5831 72.2337 16.5918 72.237 16.5995 72.242C16.6072 72.247 16.6139 72.2535 16.6191 72.2611C16.6242 72.2687 16.6278 72.2773 16.6295 72.2864Z" fill="#5C5B5B"/>
<path d="M13.9969 66.7001C13.9874 66.7001 13.9782 66.6969 13.9708 66.691C13.9634 66.685 13.9583 66.6767 13.9564 66.6674C13.9435 66.6203 13.9406 66.5711 13.9477 66.5228C13.9549 66.4746 13.972 66.4283 13.998 66.387C14.0463 66.3205 14.1177 66.2745 14.1983 66.2582C14.2092 66.2564 14.2204 66.2591 14.2293 66.2655C14.2383 66.272 14.2444 66.2817 14.2461 66.2926C14.2479 66.3036 14.2453 66.3147 14.2388 66.3237C14.2324 66.3327 14.2226 66.3387 14.2117 66.3405C14.1528 66.3531 14.1006 66.3868 14.0649 66.4353C14.0457 66.4676 14.0334 66.5035 14.0286 66.5407C14.0238 66.578 14.0267 66.6158 14.0371 66.6519C14.0382 66.6572 14.0382 66.6627 14.0372 66.668C14.0362 66.6733 14.0342 66.6784 14.0312 66.6829C14.0282 66.6874 14.0244 66.6913 14.0199 66.6944C14.0154 66.6974 14.0104 66.6995 14.0051 66.7006L13.9969 66.7001Z" fill="#292929"/>
<path d="M15.9864 69.0293L16.6921 69.3757C16.7914 69.4245 16.9114 69.3911 16.9713 69.2981L17.2988 68.7896C17.3739 68.6728 17.5002 68.5989 17.6388 68.5905L18.3597 68.5468C18.4909 68.5389 18.5852 68.4175 18.5605 68.2884L18.4171 67.5389" stroke="#5C5B5B" stroke-width="0.10894" stroke-linecap="round"/>
</g>
<path d="M53.6564 29.7031L52.6152 26.9302L39.6988 31.78L40.7399 34.553L53.6564 29.7031Z" fill="#821919"/>
<path d="M83.3698 16.9671C80.0365 8.09034 70.1039 3.58446 61.2302 6.91783C52.3535 10.2512 47.8476 20.1807 51.181 29.0544C54.5144 37.9311 64.4439 42.437 73.3176 39.1036C82.1943 35.7702 86.7032 25.8407 83.3698 16.964V16.9671ZM53.8944 28.0353C51.1227 20.6565 54.8704 12.4059 62.2462 9.63425C69.622 6.86258 77.8787 10.6073 80.6504 17.9861C83.422 25.3649 79.6712 33.6186 72.2924 36.3902C64.9135 39.1619 56.663 35.4142 53.8913 28.0384L53.8944 28.0353Z" fill="#912918"/>
<g style="mix-blend-mode:multiply">
<path d="M82.1148 17.4366C79.0423 9.25357 69.8832 5.09452 61.6971 8.167C53.5141 11.2395 49.3581 20.4016 52.4306 28.5847C55.5061 36.7708 64.6621 40.9267 72.8452 37.8543C81.0313 34.7787 85.1872 25.6227 82.1148 17.4366ZM53.8947 28.0352C51.123 20.6564 54.8708 12.4058 62.2465 9.63417C69.6223 6.8625 77.879 10.6072 80.6507 17.986C83.4223 25.3649 79.6715 33.6185 72.2927 36.3902C64.9138 39.1618 56.6633 35.4141 53.8916 28.0383L53.8947 28.0352Z" fill="#CDDFFA"/>
</g>
<path opacity="0.3" d="M77.3747 33.1166C82.9557 27.5356 82.9557 18.4869 77.3747 12.9059C71.7936 7.32483 62.745 7.32483 57.164 12.9059C51.5829 18.4869 51.5829 27.5356 57.164 33.1166C62.745 38.6976 71.7936 38.6976 77.3747 33.1166Z" fill="#912918"/>
<path d="M20.7207 40.494C20.1621 39.0084 20.9141 37.354 22.3997 36.7984L43.0322 29.0513L45.0519 34.4258L24.4194 42.173C22.9338 42.7316 21.2794 41.9796 20.7238 40.494H20.7207Z" fill="#D83E3A"/>
<g style="mix-blend-mode:multiply">
<path d="M44.5177 33.0078L23.8851 40.755C22.6451 41.2215 21.2915 40.7703 20.5518 39.7482C20.5763 39.9968 20.6285 40.2485 20.7206 40.4941C21.2792 41.9797 22.9336 42.7286 24.4161 42.173L45.0487 34.4259L44.5177 33.0109V33.0078Z" fill="#D83E3A"/>
</g>
<g style="mix-blend-mode:overlay" opacity="0.3">
<path d="M71.9156 10.9386C67.5571 9.5758 63.0174 10.2664 59.5582 13.3727C57.4986 15.2235 60.0278 18.7687 62.1181 16.8933C64.3373 14.9012 67.1857 13.9804 70.12 14.8981C72.7628 15.7238 74.5891 11.7704 71.9187 10.9355L71.9156 10.9386Z" fill="white"/>
</g>
<path d="M76.2036 22.3047C76.1975 22.9431 76.1392 24.5331 75.7248 24.9474C75.3104 25.3618 73.7205 25.4201 73.082 25.4263C73.7205 25.4324 75.3104 25.4907 75.7248 25.9051C76.1392 26.3195 76.1975 27.9094 76.2036 28.5479C76.2097 27.9094 76.2681 26.3195 76.6824 25.9051C77.0968 25.4907 78.6868 25.4324 79.3252 25.4263C78.6868 25.4201 77.0968 25.3618 76.6824 24.9474C76.2681 24.5331 76.2097 22.9431 76.2036 22.3047Z" fill="white"/>
<path d="M4.2583 90.0771C4.25216 90.7156 4.19384 92.3055 3.77947 92.7199C3.36511 93.1343 1.77515 93.1926 1.13672 93.1987C1.77515 93.2049 3.36511 93.2632 3.77947 93.6776C4.19384 94.0919 4.25216 95.6819 4.2583 96.3203C4.26444 95.6819 4.32276 94.0919 4.73713 93.6776C5.1515 93.2632 6.74145 93.2049 7.37989 93.1987C6.74145 93.1926 5.1515 93.1343 4.73713 92.7199C4.32276 92.3055 4.26444 90.7156 4.2583 90.0771Z" fill="white"/>
<path d="M17.3608 21.1045C17.3547 21.7429 17.2964 23.3329 16.882 23.7472C16.4676 24.1616 14.8777 24.2199 14.2393 24.2261C14.8777 24.2322 16.4676 24.2905 16.882 24.7049C17.2964 25.1193 17.3547 26.7092 17.3608 27.3477C17.367 26.7092 17.4253 25.1193 17.8397 24.7049C18.254 24.2905 19.844 24.2322 20.4824 24.2261C19.844 24.2199 18.254 24.1616 17.8397 23.7472C17.4253 23.3329 17.367 21.7429 17.3608 21.1045Z" fill="white"/>
<path d="M52.9761 1.22705C52.9699 1.86549 52.9116 3.45544 52.4972 3.86981C52.0829 4.28418 50.4929 4.3425 49.8545 4.34863C50.4929 4.35477 52.0829 4.41309 52.4972 4.82746C52.9116 5.24183 52.9699 6.83178 52.9761 7.47022C52.9822 6.83178 53.0405 5.24183 53.4549 4.82746C53.8693 4.41309 55.4592 4.35477 56.0977 4.34863C55.4592 4.3425 53.8693 4.28418 53.4549 3.86981C53.0405 3.45544 52.9822 1.86549 52.9761 1.22705Z" fill="white"/>
<path d="M103.54 83.2905C103.533 83.929 103.475 85.5189 103.061 85.9333C102.646 86.3477 101.056 86.406 100.418 86.4121C101.056 86.4183 102.646 86.4766 103.061 86.8909C103.475 87.3053 103.533 88.8953 103.54 89.5337C103.546 88.8953 103.604 87.3053 104.018 86.8909C104.433 86.4766 106.023 86.4183 106.661 86.4121C106.023 86.406 104.433 86.3477 104.018 85.9333C103.604 85.5189 103.546 83.929 103.54 83.2905Z" fill="white"/>
<path d="M57.1421 49.8003C57.136 50.4387 57.0776 52.0287 56.6633 52.443C56.2489 52.8574 54.6589 52.9157 54.0205 52.9219C54.6589 52.928 56.2489 52.9863 56.6633 53.4007C57.0776 53.8151 57.136 55.405 57.1421 56.0435C57.1482 55.405 57.2065 53.8151 57.6209 53.4007C58.0353 52.9863 59.6252 52.928 60.2637 52.9219C59.6252 52.9157 58.0353 52.8574 57.6209 52.443C57.2065 52.0287 57.1482 50.4387 57.1421 49.8003Z" fill="white"/>
<path d="M79.3241 30.4258C79.321 30.7726 79.2872 31.6321 79.0632 31.8561C78.8391 32.0802 77.9766 32.1109 77.6328 32.117C77.9797 32.1201 78.8391 32.1539 79.0632 32.3779C79.2872 32.602 79.3179 33.4645 79.3241 33.8083C79.3271 33.4614 79.3609 32.602 79.585 32.3779C79.809 32.1539 80.6715 32.1232 81.0153 32.117C80.6685 32.114 79.809 32.0802 79.585 31.8561C79.3609 31.6321 79.3302 30.7696 79.3241 30.4258Z" fill="white"/>
<path d="M-1.67399 59.6929C-1.67706 60.0397 -1.71083 60.8991 -1.93489 61.1232C-2.15896 61.3473 -3.02146 61.378 -3.36523 61.3841C-3.01839 61.3872 -2.15896 61.4209 -1.93489 61.645C-1.71083 61.8691 -1.68013 62.7316 -1.67399 63.0754C-1.67092 62.7285 -1.63716 61.8691 -1.41309 61.645C-1.18903 61.4209 -0.326525 61.3902 0.0172482 61.3841C-0.329595 61.381 -1.18903 61.3473 -1.41309 61.1232C-1.63716 60.8991 -1.66785 60.0366 -1.67399 59.6929Z" fill="white"/>
<path d="M112.376 48.6221C112.373 48.9689 112.339 49.8283 112.115 50.0524C111.891 50.2765 111.028 50.3072 110.685 50.3133C111.031 50.3164 111.891 50.3501 112.115 50.5742C112.339 50.7983 112.37 51.6608 112.376 52.0046C112.379 51.6577 112.413 50.7983 112.637 50.5742C112.861 50.3501 113.723 50.3195 114.067 50.3133C113.72 50.3102 112.861 50.2765 112.637 50.0524C112.413 49.8283 112.382 48.9658 112.376 48.6221Z" fill="white"/>
<path d="M88.4871 9.03271C88.4841 9.37956 88.4503 10.239 88.2262 10.4631C88.0022 10.6871 87.1397 10.7178 86.7959 10.724C87.1427 10.727 88.0022 10.7608 88.2262 10.9849C88.4503 11.2089 88.481 12.0714 88.4871 12.4152C88.4902 12.0684 88.524 11.2089 88.748 10.9849C88.9721 10.7608 89.8346 10.7301 90.1784 10.724C89.8315 10.7209 88.9721 10.6871 88.748 10.4631C88.524 10.239 88.4933 9.37649 88.4871 9.03271Z" fill="white"/>
<path d="M74.1737 99.6235C74.1706 99.9704 74.1368 100.83 73.9128 101.054C73.6887 101.278 72.8262 101.309 72.4824 101.315C72.8293 101.318 73.6887 101.352 73.9128 101.576C74.1368 101.8 74.1675 102.662 74.1737 103.006C74.1767 102.659 74.2105 101.8 74.4346 101.576C74.6586 101.352 75.5211 101.321 75.8649 101.315C75.5181 101.312 74.6586 101.278 74.4346 101.054C74.2105 100.83 74.1798 99.9673 74.1737 99.6235Z" fill="white"/>
<path d="M9.00472 51.1694C9.00165 51.5163 8.96788 52.3757 8.74382 52.5998C8.51975 52.8238 7.65725 52.8545 7.31348 52.8607C7.66032 52.8637 8.51975 52.8975 8.74382 53.1216C8.96788 53.3456 8.99858 54.2081 9.00472 54.5519C9.00779 54.2051 9.04155 53.3456 9.26562 53.1216C9.48968 52.8975 10.3522 52.8668 10.696 52.8607C10.3491 52.8576 9.48968 52.8238 9.26562 52.5998C9.04155 52.3757 9.01086 51.5132 9.00472 51.1694Z" fill="white"/>
<path d="M10.6961 84.8408C10.6931 85.1877 10.6593 86.0471 10.4352 86.2712C10.2112 86.4952 9.34866 86.5259 9.00488 86.5321C9.35173 86.5351 10.2112 86.5689 10.4352 86.793C10.6593 87.017 10.69 87.8795 10.6961 88.2233C10.6992 87.8765 10.733 87.017 10.957 86.793C11.1811 86.5689 12.0436 86.5382 12.3874 86.5321C12.0405 86.529 11.1811 86.4952 10.957 86.2712C10.733 86.0471 10.7023 85.1846 10.6961 84.8408Z" fill="white"/>
<defs>
<clipPath id="clip0_17525_83197">
<rect width="11.3297" height="11.3297" fill="white" transform="translate(63.9805 15.8916) rotate(18.1353)"/>
</clipPath>
<clipPath id="clip1_17525_83197">
<rect width="11.3297" height="11.3297" fill="white" transform="translate(9.30371 63.6006) rotate(-24.9321)"/>
</clipPath>
</defs>
</svg>
