<svg width="160" height="160" viewBox="0 0 160 160" fill="none" xmlns="http://www.w3.org/2000/svg">
  <g clip-path="url(#clip0_11492_115709)">
    <rect width="160" height="160" rx="80" fill="#F5F5F5"/>
    <g clip-path="url(#clip1_11492_115709)">
      <path d="M93.7579 80.6875C96.5193 80.6875 98.758 78.4489 98.758 75.6875C98.758 72.9261 96.5193 70.6875 93.7579 70.6875C90.9964 70.6875 88.7578 72.9261 88.7578 75.6875C88.7578 78.4489 90.9964 80.6875 93.7579 80.6875Z" fill="#292929"/>
      <path d="M89.0703 56.6072C89.0703 56.6072 103.79 49.6392 105.395 61.1873C107.352 74.5558 91.243 75.2995 91.243 75.2995L89.0703 56.6072Z" fill="white"/>
      <path d="M99.3862 57.87C99.4728 57.7678 99.5923 57.6987 99.724 57.6747C99.8558 57.6506 99.9918 57.673 100.109 57.738C100.731 58.0342 101.285 58.4564 101.735 58.9778C102.186 59.4992 102.523 60.1084 102.726 60.7669C102.992 61.8965 102.825 63.085 102.258 64.0974C102.176 64.2305 102.045 64.3258 101.893 64.3623C101.741 64.3988 101.581 64.3735 101.448 64.292C101.315 64.2104 101.22 64.0792 101.183 63.9274C101.147 63.7756 101.172 63.6155 101.254 63.4824C101.662 62.7363 101.782 61.8665 101.592 61.0376C101.423 60.535 101.153 60.0725 100.798 59.678C100.444 59.2836 100.013 58.9657 99.5311 58.7439C99.464 58.707 99.405 58.6572 99.3573 58.5974C99.3096 58.5376 99.2741 58.469 99.253 58.3955C99.232 58.3219 99.2258 58.2448 99.2347 58.1688C99.2436 58.0928 99.2673 58.0195 99.3047 57.9528L99.3862 57.87Z" fill="#292929"/>
      <path d="M169.626 167.655C163.326 176.716 144.571 164.928 135.469 171.17C134.875 171.606 129.24 168.653 128.63 169.029C115.513 177.589 105.447 172.823 89.8183 173.866C74.1894 174.908 58.555 171.915 44.4167 165.173L42.6452 164.285C30.4693 158.135 13.1605 172.881 4.83896 162.073C9.15715 150.934 23.2757 116.998 35.8297 110.87C67.8801 95.2361 114.346 97.9546 134.446 108.973C146.793 115.754 165.418 159.821 169.626 167.655Z" fill="#C2C2C2"/>
      <path d="M95.1181 43.3752C95.1181 43.3752 104.905 27.7167 102.947 21.0031C100.99 14.2895 92.2212 20.8661 92.2212 20.8661C92.2212 20.8661 90.2639 6.46026 79.4985 9.25922C65.2099 12.9781 50.9996 38.1492 50.9996 38.1492C50.9996 38.1492 43.7183 36.3289 41.2129 42.7097C38.3552 50.1475 40.8606 58.4857 45.4603 65.8843C50.0601 73.283 62.4892 67.1957 62.4892 67.1957L95.1181 43.3752Z" fill="#292929"/>
      <path d="M63.4951 88.7684L64.004 105.954C68.4212 108.064 73.2605 109.141 78.1556 109.105C88.6665 108.87 92.0527 104.251 92.0527 104.251L91.1132 81.9766L63.4951 88.7684Z" fill="white"/>
      <path d="M63.4951 88.4202C63.4951 88.4202 70.1501 101.319 81.992 99.0875C91.5634 97.2672 91.1719 83.7422 91.1719 83.7422L63.4951 88.4202Z" fill="#292929"/>
      <path d="M84.2134 74.9117C84.2134 74.9117 94.8402 70.5312 95.9195 58.6278C96.7801 49.004 87.1163 47.1788 87.1163 47.1788L84.2134 74.9117Z" fill="#292929"/>
      <path d="M55.1076 83.7033C59.1614 83.7033 62.4476 80.4171 62.4476 76.3634C62.4476 72.3096 59.1614 69.0234 55.1076 69.0234C51.0538 69.0234 47.7676 72.3096 47.7676 76.3634C47.7676 80.4171 51.0538 83.7033 55.1076 83.7033Z" fill="#292929"/>
      <path d="M60.357 85.874C63.2541 85.874 65.6027 83.5255 65.6027 80.6284C65.6027 77.7313 63.2541 75.3828 60.357 75.3828C57.4599 75.3828 55.1113 77.7313 55.1113 80.6284C55.1113 83.5255 57.4599 85.874 60.357 85.874Z" fill="#292929"/>
      <path d="M95.1174 43.3959C95.1174 43.3959 100.363 73.2645 95.1174 84.9497C89.2454 98.0441 73.3206 96.2201 67.8401 92.3447C62.9154 90.0272 56.7658 83.576 54.5145 78.1502C54.5145 78.1502 47.2709 77.8569 45.5341 72.0669C43.7973 66.2769 45.2364 61.0863 50.1689 60.4796C55.1014 59.8728 56.5422 61.0589 56.5422 61.0589L55.1485 48.4654C55.1485 48.4654 83.7844 13.9383 95.1174 43.3959Z" fill="white"/>
      <path d="M56.6441 60.2726C61.6978 60.0068 66.5189 58.0647 70.3455 54.753C78.8012 48.0198 77.4702 36.8827 77.4702 36.8827C77.4702 36.8827 92.8941 45.7297 96.7305 57.3757C100.567 69.0218 100.508 29.484 83.4401 30.9129C66.3721 32.3417 43.5495 43.4984 56.6441 60.2726Z" fill="#292929"/>
      <path d="M54.3313 57.3252C54.3313 57.3252 58.364 67.5838 59.693 67.1237C61.0219 66.6637 58.1119 50.2867 54.1938 49.7807C50.2756 49.2747 54.3313 57.3252 54.3313 57.3252Z" fill="#292929"/>
      <path d="M47.7529 154.842L45.541 166.429L43.7207 165.646L45.8542 154.45C45.8777 154.323 45.9263 154.201 45.9973 154.092C46.0682 153.983 46.1601 153.89 46.2676 153.817C46.3751 153.744 46.496 153.693 46.6233 153.668C46.7506 153.642 46.8817 153.642 47.0091 153.667C47.1366 153.693 47.2577 153.744 47.3649 153.817C47.4722 153.891 47.5633 153.985 47.6329 154.095C47.7024 154.205 47.749 154.328 47.7696 154.456C47.7902 154.585 47.7845 154.716 47.7529 154.842Z" fill="#5C5B5B"/>
      <path d="M47.3059 67.6362C47.184 67.5807 47.085 67.4846 47.0259 67.3643C46.9669 67.2441 46.9514 67.1072 46.982 66.9767C47.0975 66.2975 47.3529 65.6496 47.7318 65.0742C48.1108 64.4987 48.6051 64.0082 49.1835 63.6338C50.1978 63.0697 51.3869 62.9067 52.5156 63.1769C52.6659 63.2191 52.7933 63.3193 52.8697 63.4554C52.9462 63.5915 52.9656 63.7525 52.9234 63.9028C52.8812 64.0532 52.7808 64.1804 52.6447 64.2569C52.5085 64.3334 52.3477 64.3526 52.1974 64.3104C51.3683 64.1209 50.4985 64.2419 49.7527 64.6505C49.3152 64.9503 48.9438 65.3363 48.6608 65.7848C48.3779 66.2333 48.1895 66.7348 48.1073 67.2587C48.0901 67.3333 48.0583 67.4036 48.0137 67.4658C47.9692 67.5281 47.9128 67.5809 47.8478 67.6212C47.7827 67.6614 47.7103 67.6884 47.6347 67.7006C47.5592 67.7127 47.4822 67.7099 47.4078 67.6921L47.3059 67.6362Z" fill="#292929"/>
      <path d="M58.9092 109.303L65.8837 117.94C66.8649 119.156 68.6008 119.443 69.9212 118.609L77.1426 114.046C78.7999 112.998 80.857 112.804 82.6814 113.521L92.1741 117.253C93.9013 117.932 95.832 116.939 96.2842 115.139L98.9097 104.688" stroke="#5C5B5B" stroke-width="1.53847" stroke-linecap="round"/>
    </g>
  </g>
  <defs>
    <clipPath id="clip0_11492_115709">
      <rect width="160" height="160" rx="80" fill="white"/>
    </clipPath>
    <clipPath id="clip1_11492_115709">
      <rect width="160" height="160" fill="white" transform="translate(5.64941)"/>
    </clipPath>
  </defs>
</svg>
