<svg width="148" height="131" viewBox="0 0 148 131" fill="none" xmlns="http://www.w3.org/2000/svg">
  <g clip-path="url(#clip0_11492_115801)">
    <path d="M3.58001 54.7375C5.50379 56.6609 8.03483 57.858 10.7421 58.1248C13.4493 58.3917 16.1654 57.7118 18.4277 56.201L10.0706 64.582C8.00503 66.6458 6.78123 69.4043 6.63731 72.3207C6.49339 75.237 7.43966 78.1026 9.29195 80.3597C11.1442 82.6169 13.7701 84.1041 16.6584 84.5321C19.5468 84.96 22.491 84.2981 24.9182 82.675L20.5249 87.0683C18.4637 89.1333 17.2435 91.8908 17.1015 94.805C16.9596 97.7193 17.9058 100.582 19.7566 102.838C21.6074 105.093 24.2304 106.581 27.1163 107.011C30.0022 107.44 32.9448 106.782 35.3726 105.164L34.2988 106.224C32.0904 108.429 30.8481 111.42 30.8451 114.54C30.8422 117.66 32.0788 120.653 34.2829 122.862C36.487 125.07 39.4782 126.313 42.5983 126.315C45.7184 126.318 48.7119 125.082 50.9203 122.878L62.056 111.742C60.4329 114.169 59.771 117.113 60.1989 120.002C60.6269 122.89 62.1141 125.516 64.3713 127.368C66.6284 129.221 69.494 130.167 72.4104 130.023C75.3267 129.879 78.0852 128.655 80.149 126.59L97.0833 109.655C95.4602 112.083 94.7982 115.027 95.2262 117.915C95.6542 120.804 97.1414 123.429 99.3986 125.282C101.656 127.134 104.521 128.08 107.438 127.936C110.354 127.792 113.112 126.569 115.176 124.503L141.536 98.1431C143.602 96.0793 144.826 93.3208 144.969 90.4045C145.113 87.4881 144.167 84.6226 142.315 82.3654C140.463 80.1083 137.837 78.621 134.948 78.193C132.06 77.7651 129.116 78.427 126.689 80.0501L132.209 74.53C134.267 72.4643 135.484 69.7077 135.624 66.7952C135.765 63.8826 134.818 61.0217 132.969 58.7676C131.119 56.5135 128.498 55.0269 125.614 54.5963C122.73 54.1656 119.789 54.8216 117.361 56.437L128.497 45.3013C130.562 43.2374 131.786 40.479 131.93 37.5626C132.074 34.6463 131.128 31.7807 129.275 29.5236C127.423 27.2664 124.797 25.7791 121.909 25.3512C119.021 24.9232 116.076 25.5852 113.649 27.2083L120.747 20.1106C122.909 17.896 124.111 14.9186 124.092 11.8238C124.074 8.72891 122.836 5.7661 120.648 3.57767C118.459 1.38925 115.496 0.151587 112.402 0.133024C109.307 0.114462 106.329 1.31649 104.115 3.47851L88.3073 19.2886C89.9303 16.8614 90.5923 13.9172 90.1644 11.0288C89.7364 8.14046 88.2491 5.51464 85.992 3.66234C83.7348 1.81005 80.8693 0.863788 77.9529 1.00771C75.0366 1.15163 72.2781 2.37543 70.2143 4.44096L48.0329 26.6064C49.656 24.1792 50.318 21.235 49.89 18.3466C49.4621 15.4582 47.9748 12.8324 45.7176 10.9801C43.4605 9.12784 40.5949 8.18158 37.6786 8.32549C34.7622 8.46941 32.0038 9.69321 29.9399 11.7587L3.58001 38.1187C1.37467 40.3243 0.135742 43.3157 0.135742 46.4347C0.135742 49.5538 1.37467 52.5451 3.58001 54.7507V54.7375Z" fill="white"/>
    <path d="M144.642 104.875L143.83 105.689C143.685 105.843 143.605 106.048 143.607 106.26C143.61 106.472 143.696 106.675 143.846 106.824C143.996 106.974 144.198 107.06 144.41 107.063C144.622 107.066 144.827 106.986 144.981 106.84L145.795 106.026L146.609 106.84C146.763 106.986 146.968 107.066 147.18 107.063C147.392 107.06 147.594 106.974 147.744 106.824C147.894 106.675 147.979 106.472 147.982 106.26C147.985 106.048 147.905 105.843 147.76 105.689L146.946 104.875L147.76 104.061C147.839 103.987 147.902 103.897 147.945 103.797C147.989 103.698 148.012 103.59 148.014 103.481C148.015 103.373 147.995 103.265 147.954 103.164C147.913 103.063 147.853 102.972 147.776 102.895C147.699 102.818 147.607 102.757 147.506 102.716C147.406 102.675 147.298 102.655 147.189 102.656C147.08 102.658 146.973 102.681 146.873 102.725C146.774 102.768 146.684 102.832 146.609 102.911L145.795 103.722L144.981 102.911C144.827 102.765 144.622 102.685 144.41 102.688C144.198 102.691 143.996 102.776 143.846 102.926C143.696 103.076 143.61 103.279 143.607 103.491C143.605 103.703 143.685 103.907 143.83 104.061L144.642 104.875Z" fill="white"/>
    <path d="M28.3653 122.407L27.5698 123.221C27.4909 123.295 27.4276 123.385 27.384 123.485C27.3403 123.584 27.317 123.692 27.3155 123.801C27.314 123.909 27.3343 124.017 27.3753 124.118C27.4162 124.219 27.4769 124.31 27.5538 124.387C27.6308 124.464 27.7223 124.525 27.8231 124.566C27.9239 124.607 28.0318 124.627 28.1406 124.626C28.2493 124.624 28.3567 124.601 28.4563 124.557C28.5559 124.513 28.6458 124.45 28.7205 124.371L29.5345 123.557L30.3485 124.371C30.4233 124.45 30.5131 124.513 30.6127 124.557C30.7123 124.601 30.8197 124.624 30.9285 124.626C31.0372 124.627 31.1452 124.607 31.246 124.566C31.3467 124.525 31.4383 124.464 31.5152 124.387C31.5921 124.31 31.6528 124.219 31.6938 124.118C31.7347 124.017 31.755 123.909 31.7535 123.801C31.752 123.692 31.7288 123.584 31.6851 123.485C31.6414 123.385 31.5782 123.295 31.4992 123.221L30.6852 122.407L31.4992 121.593C31.5782 121.518 31.6414 121.428 31.6851 121.328C31.7288 121.229 31.752 121.121 31.7535 121.013C31.755 120.904 31.7347 120.796 31.6938 120.695C31.6528 120.594 31.5921 120.503 31.5152 120.426C31.4383 120.349 31.3467 120.288 31.246 120.247C31.1452 120.206 31.0372 120.186 30.9285 120.188C30.8197 120.189 30.7123 120.212 30.6127 120.256C30.5131 120.3 30.4233 120.363 30.3485 120.442L29.5345 121.256L28.7205 120.442C28.5666 120.296 28.3618 120.216 28.1498 120.219C27.9378 120.222 27.7353 120.308 27.5854 120.458C27.4355 120.607 27.35 120.81 27.3471 121.022C27.3442 121.234 27.4241 121.439 27.5698 121.593L28.3653 122.407Z" fill="white"/>
    <path d="M7.54886 50.2816L6.73489 51.0956C6.65916 51.1711 6.59905 51.2608 6.558 51.3596C6.51695 51.4584 6.49576 51.5643 6.49564 51.6713C6.49551 51.7783 6.51646 51.8842 6.55728 51.9831C6.59811 52.082 6.65801 52.1719 6.73356 52.2476C6.80912 52.3233 6.89885 52.3834 6.99764 52.4245C7.09642 52.4655 7.20233 52.4867 7.3093 52.4868C7.41628 52.487 7.52223 52.466 7.62111 52.4252C7.71998 52.3844 7.80985 52.3245 7.88558 52.2489L8.69956 51.4349L9.51353 52.2489C9.66895 52.3891 9.87226 52.4642 10.0815 52.4589C10.2907 52.4535 10.4899 52.3679 10.6379 52.2199C10.7859 52.0719 10.8714 51.8728 10.8768 51.6635C10.8822 51.4543 10.8071 51.251 10.6669 51.0956L9.8529 50.2816L10.6669 49.4676C10.8195 49.3147 10.9051 49.1074 10.9048 48.8913C10.9046 48.6753 10.8185 48.4682 10.6655 48.3156C10.5126 48.163 10.3053 48.0774 10.0893 48.0777C9.87322 48.0779 9.66612 48.164 9.51353 48.3169L8.69956 49.1309L7.88558 48.3169C7.81081 48.2379 7.72096 48.1747 7.62135 48.131C7.52173 48.0874 7.41437 48.0641 7.30561 48.0626C7.19685 48.0611 7.08889 48.0814 6.98812 48.1223C6.88734 48.1633 6.79579 48.224 6.71888 48.3009C6.64196 48.3778 6.58124 48.4694 6.54031 48.5701C6.49937 48.6709 6.47905 48.7789 6.48055 48.8876C6.48204 48.9964 6.50531 49.1038 6.549 49.2034C6.59268 49.303 6.65589 49.3928 6.73489 49.4676L7.54886 50.2816Z" fill="white"/>
    <path d="M105.488 8.45854L104.674 9.27251C104.598 9.34824 104.539 9.43811 104.498 9.53699C104.457 9.63587 104.436 9.74182 104.436 9.8488C104.436 9.95577 104.457 10.0617 104.498 10.1605C104.539 10.2592 104.6 10.349 104.675 10.4245C104.751 10.5001 104.841 10.56 104.94 10.6008C105.039 10.6416 105.145 10.6626 105.252 10.6625C105.359 10.6623 105.464 10.6411 105.563 10.6001C105.662 10.559 105.752 10.4989 105.827 10.4232L106.641 9.60924L107.453 10.4232C107.528 10.4989 107.618 10.559 107.717 10.6001C107.815 10.6411 107.921 10.6623 108.028 10.6625C108.135 10.6626 108.241 10.6416 108.34 10.6008C108.439 10.56 108.529 10.5001 108.605 10.4245C108.68 10.349 108.74 10.2592 108.782 10.1605C108.823 10.0617 108.844 9.95577 108.844 9.8488C108.844 9.74182 108.823 9.63587 108.782 9.53699C108.741 9.43811 108.682 9.34824 108.606 9.27251L107.792 8.45854L108.606 7.64457C108.746 7.48915 108.821 7.28583 108.816 7.0766C108.811 6.86736 108.725 6.66819 108.577 6.52019C108.429 6.37219 108.23 6.28667 108.021 6.28128C107.811 6.27589 107.608 6.35104 107.453 6.49122L106.641 7.30519L105.827 6.48062C105.753 6.39835 105.663 6.33205 105.562 6.28573C105.462 6.23942 105.353 6.21406 105.242 6.21121C105.131 6.20836 105.021 6.22807 104.918 6.26914C104.815 6.31021 104.722 6.37179 104.643 6.45012C104.565 6.52846 104.504 6.62191 104.463 6.72479C104.421 6.82768 104.402 6.93785 104.405 7.04859C104.407 7.15933 104.433 7.26834 104.479 7.36897C104.525 7.46961 104.592 7.55977 104.674 7.63397L105.488 8.45854Z" fill="white"/>
    <path d="M90.5903 123.547C91.0623 123.547 91.5236 123.687 91.9161 123.949C92.3085 124.211 92.6143 124.584 92.7949 125.02C92.9755 125.456 93.0228 125.936 92.9307 126.399C92.8387 126.862 92.6114 127.287 92.2777 127.62C91.9439 127.954 91.5187 128.181 91.0559 128.273C90.593 128.366 90.1132 128.318 89.6772 128.138C89.2411 127.957 88.8685 127.651 88.6063 127.259C88.3441 126.866 88.2041 126.405 88.2041 125.933C88.2041 125.3 88.4555 124.693 88.903 124.246C89.3505 123.798 89.9575 123.547 90.5903 123.547ZM90.5903 126.675C90.7387 126.675 90.8838 126.631 91.0072 126.549C91.1306 126.467 91.2268 126.349 91.2836 126.212C91.3403 126.075 91.3552 125.924 91.3263 125.779C91.2973 125.633 91.2258 125.5 91.1209 125.395C91.016 125.29 90.8823 125.218 90.7367 125.189C90.5912 125.16 90.4403 125.175 90.3032 125.232C90.1661 125.289 90.0489 125.385 89.9665 125.508C89.884 125.632 89.84 125.777 89.84 125.925C89.84 126.024 89.8594 126.121 89.8971 126.212C89.9348 126.303 89.9901 126.386 90.0598 126.456C90.1294 126.525 90.2122 126.581 90.3032 126.618C90.3942 126.656 90.4918 126.675 90.5903 126.675Z" fill="white"/>
    <path d="M135.427 47.7344C135.899 47.7344 136.361 47.8743 136.753 48.1365C137.145 48.3987 137.451 48.7714 137.632 49.2074C137.812 49.6435 137.86 50.1233 137.768 50.5861C137.676 51.049 137.448 51.4742 137.115 51.8079C136.781 52.1417 136.356 52.3689 135.893 52.461C135.43 52.5531 134.95 52.5058 134.514 52.3252C134.078 52.1446 133.705 51.8388 133.443 51.4463C133.181 51.0539 133.041 50.5926 133.041 50.1206C133.041 49.4877 133.292 48.8808 133.74 48.4333C134.187 47.9858 134.794 47.7344 135.427 47.7344ZM135.427 50.8657C135.576 50.8657 135.721 50.8216 135.844 50.7392C135.968 50.6567 136.064 50.5396 136.12 50.4025C136.177 50.2653 136.192 50.1145 136.163 49.9689C136.134 49.8234 136.063 49.6897 135.958 49.5847C135.853 49.4798 135.719 49.4083 135.574 49.3794C135.428 49.3504 135.277 49.3653 135.14 49.4221C135.003 49.4789 134.886 49.5751 134.803 49.6984C134.721 49.8218 134.677 49.9669 134.677 50.1153C134.677 50.2138 134.696 50.3114 134.734 50.4025C134.772 50.4935 134.827 50.5762 134.897 50.6459C134.966 50.7156 135.049 50.7708 135.14 50.8085C135.231 50.8462 135.329 50.8657 135.427 50.8657Z" fill="white"/>
    <path d="M35.8374 9.55469C36.3094 9.55469 36.7707 9.69464 37.1631 9.95684C37.5555 10.219 37.8614 10.5917 38.042 11.0277C38.2226 11.4638 38.2699 11.9436 38.1778 12.4065C38.0857 12.8693 37.8585 13.2945 37.5247 13.6282C37.191 13.962 36.7658 14.1892 36.3029 14.2813C35.8401 14.3734 35.3603 14.3261 34.9242 14.1455C34.4882 13.9649 34.1155 13.6591 33.8533 13.2666C33.5911 12.8742 33.4512 12.4129 33.4512 11.9409C33.4512 11.3081 33.7026 10.7011 34.1501 10.2536C34.5976 9.80609 35.2045 9.55469 35.8374 9.55469ZM35.8374 12.6833C35.9858 12.6833 36.1309 12.6393 36.2543 12.5569C36.3777 12.4744 36.4738 12.3572 36.5306 12.2201C36.5874 12.083 36.6023 11.9321 36.5733 11.7866C36.5444 11.641 36.4729 11.5073 36.368 11.4024C36.263 11.2975 36.1293 11.226 35.9838 11.197C35.8382 11.1681 35.6874 11.183 35.5503 11.2397C35.4132 11.2965 35.296 11.3927 35.2135 11.5161C35.1311 11.6395 35.0871 11.7846 35.0871 11.933C35.0871 12.132 35.1661 12.3228 35.3068 12.4635C35.4476 12.6043 35.6384 12.6833 35.8374 12.6833Z" fill="white"/>
    <path d="M8.11866 83.8359C8.59061 83.8359 9.05197 83.9759 9.44438 84.2381C9.83679 84.5003 10.1426 84.873 10.3232 85.309C10.5039 85.745 10.5511 86.2248 10.459 86.6877C10.367 87.1506 10.1397 87.5758 9.80598 87.9095C9.47226 88.2432 9.04707 88.4705 8.58419 88.5626C8.1213 88.6546 7.64151 88.6074 7.20548 88.4268C6.76946 88.2462 6.39678 87.9403 6.13457 87.5479C5.87237 87.1555 5.73242 86.6941 5.73242 86.2222C5.73242 85.5893 5.98383 84.9823 6.43133 84.5348C6.87884 84.0873 7.48579 83.8359 8.11866 83.8359ZM8.11866 86.9672C8.26717 86.9677 8.4125 86.9242 8.53624 86.842C8.65998 86.7599 8.75657 86.6429 8.81377 86.5058C8.87097 86.3688 8.8862 86.2178 8.85755 86.0721C8.8289 85.9264 8.75765 85.7924 8.65282 85.6872C8.54798 85.582 8.41429 85.5103 8.26867 85.4811C8.12305 85.452 7.97204 85.4667 7.83478 85.5234C7.69752 85.5801 7.58018 85.6763 7.49761 85.7997C7.41504 85.9232 7.37097 86.0683 7.37097 86.2169C7.37097 86.4154 7.44966 86.6059 7.5898 86.7465C7.72995 86.8871 7.92011 86.9665 8.11866 86.9672Z" fill="white"/>
    <path d="M3.58001 54.7375C5.50379 56.6609 8.03483 57.858 10.7421 58.1248C13.4493 58.3917 16.1654 57.7118 18.4277 56.201L10.0706 64.582C8.00503 66.6458 6.78123 69.4043 6.63731 72.3207C6.49339 75.237 7.43966 78.1026 9.29195 80.3597C11.1442 82.6169 13.7701 84.1041 16.6584 84.5321C19.5468 84.96 22.491 84.2981 24.9182 82.675L20.5249 87.0683C18.4637 89.1333 17.2435 91.8908 17.1015 94.805C16.9596 97.7193 17.9058 100.582 19.7566 102.838C21.6074 105.093 24.2304 106.581 27.1163 107.011C30.0022 107.44 32.9448 106.782 35.3726 105.164L34.2988 106.224C32.0904 108.429 30.8481 111.42 30.8451 114.54C30.8422 117.66 32.0788 120.653 34.2829 122.862C36.487 125.07 39.4782 126.313 42.5983 126.315C45.7184 126.318 48.7119 125.082 50.9203 122.878L62.056 111.742C60.4329 114.169 59.771 117.113 60.1989 120.002C60.6269 122.89 62.1141 125.516 64.3713 127.368C66.6284 129.221 69.494 130.167 72.4104 130.023C75.3267 129.879 78.0852 128.655 80.149 126.59L97.0833 109.655C95.4602 112.083 94.7982 115.027 95.2262 117.915C95.6542 120.804 97.1414 123.429 99.3986 125.282C101.656 127.134 104.521 128.08 107.438 127.936C110.354 127.792 113.112 126.569 115.176 124.503L141.536 98.1431C143.602 96.0793 144.826 93.3208 144.969 90.4045C145.113 87.4881 144.167 84.6226 142.315 82.3654C140.463 80.1083 137.837 78.621 134.948 78.193C132.06 77.7651 129.116 78.427 126.689 80.0501L132.209 74.53C134.267 72.4643 135.484 69.7077 135.624 66.7952C135.765 63.8826 134.818 61.0217 132.969 58.7676C131.119 56.5135 128.498 55.0269 125.614 54.5963C122.73 54.1656 119.789 54.8216 117.361 56.437L128.497 45.3013C130.562 43.2374 131.786 40.479 131.93 37.5626C132.074 34.6463 131.128 31.7807 129.275 29.5236C127.423 27.2664 124.797 25.7791 121.909 25.3512C119.021 24.9232 116.076 25.5852 113.649 27.2083L120.747 20.1106C122.909 17.896 124.111 14.9186 124.092 11.8238C124.074 8.72891 122.836 5.7661 120.648 3.57767C118.459 1.38925 115.496 0.151587 112.402 0.133024C109.307 0.114462 106.329 1.31649 104.115 3.47851L88.3073 19.2886C89.9303 16.8614 90.5923 13.9172 90.1644 11.0288C89.7364 8.14046 88.2491 5.51464 85.992 3.66234C83.7348 1.81005 80.8693 0.863788 77.9529 1.00771C75.0366 1.15163 72.2781 2.37543 70.2143 4.44096L48.0329 26.6064C49.656 24.1792 50.318 21.235 49.89 18.3466C49.4621 15.4582 47.9748 12.8324 45.7176 10.9801C43.4605 9.12784 40.5949 8.18158 37.6786 8.32549C34.7622 8.46941 32.0038 9.69321 29.9399 11.7587L3.58001 38.1187C1.37467 40.3243 0.135742 43.3157 0.135742 46.4347C0.135742 49.5538 1.37467 52.5451 3.58001 54.7507V54.7375Z" fill="#F5F5F5"/>
    <path d="M144.642 104.875L143.83 105.689C143.685 105.843 143.605 106.048 143.607 106.26C143.61 106.472 143.696 106.675 143.846 106.824C143.996 106.974 144.198 107.06 144.41 107.063C144.622 107.066 144.827 106.986 144.981 106.84L145.795 106.026L146.609 106.84C146.763 106.986 146.968 107.066 147.18 107.063C147.392 107.06 147.594 106.974 147.744 106.824C147.894 106.675 147.979 106.472 147.982 106.26C147.985 106.048 147.905 105.843 147.76 105.689L146.946 104.875L147.76 104.061C147.839 103.987 147.902 103.897 147.945 103.797C147.989 103.698 148.012 103.59 148.014 103.481C148.015 103.373 147.995 103.265 147.954 103.164C147.913 103.063 147.853 102.972 147.776 102.895C147.699 102.818 147.607 102.757 147.506 102.716C147.406 102.675 147.298 102.655 147.189 102.656C147.08 102.658 146.973 102.681 146.873 102.725C146.774 102.768 146.684 102.832 146.609 102.911L145.795 103.722L144.981 102.911C144.827 102.765 144.622 102.685 144.41 102.688C144.198 102.691 143.996 102.776 143.846 102.926C143.696 103.076 143.61 103.279 143.607 103.491C143.605 103.703 143.685 103.907 143.83 104.061L144.642 104.875Z" fill="#FFBCB0"/>
    <path d="M28.3653 122.407L27.5698 123.221C27.4909 123.295 27.4276 123.385 27.384 123.485C27.3403 123.584 27.317 123.692 27.3155 123.801C27.314 123.909 27.3343 124.017 27.3753 124.118C27.4162 124.219 27.4769 124.31 27.5538 124.387C27.6308 124.464 27.7223 124.525 27.8231 124.566C27.9239 124.607 28.0318 124.627 28.1406 124.626C28.2493 124.624 28.3567 124.601 28.4563 124.557C28.5559 124.513 28.6458 124.45 28.7205 124.371L29.5345 123.557L30.3485 124.371C30.4233 124.45 30.5131 124.513 30.6127 124.557C30.7123 124.601 30.8197 124.624 30.9285 124.626C31.0372 124.627 31.1452 124.607 31.246 124.566C31.3467 124.525 31.4383 124.464 31.5152 124.387C31.5921 124.31 31.6528 124.219 31.6938 124.118C31.7347 124.017 31.755 123.909 31.7535 123.801C31.752 123.692 31.7288 123.584 31.6851 123.485C31.6414 123.385 31.5782 123.295 31.4992 123.221L30.6852 122.407L31.4992 121.593C31.5782 121.518 31.6414 121.428 31.6851 121.328C31.7288 121.229 31.752 121.121 31.7535 121.013C31.755 120.904 31.7347 120.796 31.6938 120.695C31.6528 120.594 31.5921 120.503 31.5152 120.426C31.4383 120.349 31.3467 120.288 31.246 120.247C31.1452 120.206 31.0372 120.186 30.9285 120.188C30.8197 120.189 30.7123 120.212 30.6127 120.256C30.5131 120.3 30.4233 120.363 30.3485 120.442L29.5345 121.256L28.7205 120.442C28.5666 120.296 28.3618 120.216 28.1498 120.219C27.9378 120.222 27.7353 120.308 27.5854 120.458C27.4355 120.607 27.35 120.81 27.3471 121.022C27.3442 121.234 27.4241 121.439 27.5698 121.593L28.3653 122.407Z" fill="#FFBCB0"/>
    <path d="M7.54886 50.2816L6.73489 51.0956C6.65916 51.1711 6.59905 51.2608 6.558 51.3596C6.51695 51.4584 6.49576 51.5643 6.49564 51.6713C6.49551 51.7783 6.51646 51.8842 6.55728 51.9831C6.59811 52.082 6.65801 52.1719 6.73356 52.2476C6.80912 52.3233 6.89885 52.3834 6.99764 52.4245C7.09642 52.4655 7.20233 52.4867 7.3093 52.4868C7.41628 52.487 7.52223 52.466 7.62111 52.4252C7.71998 52.3844 7.80985 52.3245 7.88558 52.2489L8.69956 51.4349L9.51353 52.2489C9.66895 52.3891 9.87226 52.4642 10.0815 52.4589C10.2907 52.4535 10.4899 52.3679 10.6379 52.2199C10.7859 52.0719 10.8714 51.8728 10.8768 51.6635C10.8822 51.4543 10.8071 51.251 10.6669 51.0956L9.8529 50.2816L10.6669 49.4676C10.8195 49.3147 10.9051 49.1074 10.9048 48.8913C10.9046 48.6753 10.8185 48.4682 10.6655 48.3156C10.5126 48.163 10.3053 48.0774 10.0893 48.0777C9.87322 48.0779 9.66612 48.164 9.51353 48.3169L8.69956 49.1309L7.88558 48.3169C7.81081 48.2379 7.72096 48.1747 7.62135 48.131C7.52173 48.0874 7.41437 48.0641 7.30561 48.0626C7.19685 48.0611 7.08889 48.0814 6.98812 48.1223C6.88734 48.1633 6.79579 48.224 6.71888 48.3009C6.64196 48.3778 6.58124 48.4694 6.54031 48.5701C6.49937 48.6709 6.47905 48.7789 6.48055 48.8876C6.48204 48.9964 6.50531 49.1038 6.549 49.2034C6.59268 49.303 6.65589 49.3928 6.73489 49.4676L7.54886 50.2816Z" fill="#FFBCB0"/>
    <path d="M105.488 8.45854L104.674 9.27251C104.598 9.34824 104.539 9.43811 104.498 9.53699C104.457 9.63587 104.436 9.74182 104.436 9.8488C104.436 9.95577 104.457 10.0617 104.498 10.1605C104.539 10.2592 104.6 10.349 104.675 10.4245C104.751 10.5001 104.841 10.56 104.94 10.6008C105.039 10.6416 105.145 10.6626 105.252 10.6625C105.359 10.6623 105.464 10.6411 105.563 10.6001C105.662 10.559 105.752 10.4989 105.827 10.4232L106.641 9.60924L107.453 10.4232C107.528 10.4989 107.618 10.559 107.717 10.6001C107.815 10.6411 107.921 10.6623 108.028 10.6625C108.135 10.6626 108.241 10.6416 108.34 10.6008C108.439 10.56 108.529 10.5001 108.605 10.4245C108.68 10.349 108.74 10.2592 108.782 10.1605C108.823 10.0617 108.844 9.95577 108.844 9.8488C108.844 9.74182 108.823 9.63587 108.782 9.53699C108.741 9.43811 108.682 9.34824 108.606 9.27251L107.792 8.45854L108.606 7.64457C108.746 7.48915 108.821 7.28583 108.816 7.0766C108.811 6.86736 108.725 6.66819 108.577 6.52019C108.429 6.37219 108.23 6.28667 108.021 6.28128C107.811 6.27589 107.608 6.35104 107.453 6.49122L106.641 7.30519L105.827 6.48062C105.753 6.39835 105.663 6.33205 105.562 6.28573C105.462 6.23942 105.353 6.21406 105.242 6.21121C105.131 6.20836 105.021 6.22807 104.918 6.26914C104.815 6.31021 104.722 6.37179 104.643 6.45012C104.565 6.52846 104.504 6.62191 104.463 6.72479C104.421 6.82768 104.402 6.93785 104.405 7.04859C104.407 7.15933 104.433 7.26834 104.479 7.36897C104.525 7.46961 104.592 7.55977 104.674 7.63397L105.488 8.45854Z" fill="#FFBCB0"/>
    <path d="M90.5903 123.547C91.0623 123.547 91.5236 123.687 91.9161 123.949C92.3085 124.211 92.6143 124.584 92.7949 125.02C92.9755 125.456 93.0228 125.936 92.9307 126.399C92.8387 126.862 92.6114 127.287 92.2777 127.62C91.9439 127.954 91.5187 128.181 91.0559 128.273C90.593 128.366 90.1132 128.318 89.6772 128.138C89.2411 127.957 88.8685 127.651 88.6063 127.259C88.3441 126.866 88.2041 126.405 88.2041 125.933C88.2041 125.3 88.4555 124.693 88.903 124.246C89.3505 123.798 89.9575 123.547 90.5903 123.547ZM90.5903 126.675C90.7387 126.675 90.8838 126.631 91.0072 126.549C91.1306 126.467 91.2268 126.349 91.2836 126.212C91.3403 126.075 91.3552 125.924 91.3263 125.779C91.2973 125.633 91.2258 125.5 91.1209 125.395C91.016 125.29 90.8823 125.218 90.7367 125.189C90.5912 125.16 90.4403 125.175 90.3032 125.232C90.1661 125.289 90.0489 125.385 89.9665 125.508C89.884 125.632 89.84 125.777 89.84 125.925C89.84 126.024 89.8594 126.121 89.8971 126.212C89.9348 126.303 89.9901 126.386 90.0598 126.456C90.1294 126.525 90.2122 126.581 90.3032 126.618C90.3942 126.656 90.4918 126.675 90.5903 126.675Z" fill="#FFBCB0"/>
    <path d="M135.427 47.7344C135.899 47.7344 136.361 47.8743 136.753 48.1365C137.145 48.3987 137.451 48.7714 137.632 49.2074C137.812 49.6435 137.86 50.1233 137.768 50.5861C137.676 51.049 137.448 51.4742 137.115 51.8079C136.781 52.1417 136.356 52.3689 135.893 52.461C135.43 52.5531 134.95 52.5058 134.514 52.3252C134.078 52.1446 133.705 51.8388 133.443 51.4463C133.181 51.0539 133.041 50.5926 133.041 50.1206C133.041 49.4877 133.292 48.8808 133.74 48.4333C134.187 47.9858 134.794 47.7344 135.427 47.7344ZM135.427 50.8657C135.576 50.8657 135.721 50.8216 135.844 50.7392C135.968 50.6567 136.064 50.5396 136.12 50.4025C136.177 50.2653 136.192 50.1145 136.163 49.9689C136.134 49.8234 136.063 49.6897 135.958 49.5847C135.853 49.4798 135.719 49.4083 135.574 49.3794C135.428 49.3504 135.277 49.3653 135.14 49.4221C135.003 49.4789 134.886 49.5751 134.803 49.6984C134.721 49.8218 134.677 49.9669 134.677 50.1153C134.677 50.2138 134.696 50.3114 134.734 50.4025C134.772 50.4935 134.827 50.5762 134.897 50.6459C134.966 50.7156 135.049 50.7708 135.14 50.8085C135.231 50.8462 135.329 50.8657 135.427 50.8657Z" fill="#FFBCB0"/>
    <path d="M35.8374 9.55469C36.3094 9.55469 36.7707 9.69464 37.1631 9.95684C37.5555 10.219 37.8614 10.5917 38.042 11.0277C38.2226 11.4638 38.2699 11.9436 38.1778 12.4065C38.0857 12.8693 37.8585 13.2945 37.5247 13.6282C37.191 13.962 36.7658 14.1892 36.3029 14.2813C35.8401 14.3734 35.3603 14.3261 34.9242 14.1455C34.4882 13.9649 34.1155 13.6591 33.8533 13.2666C33.5911 12.8742 33.4512 12.4129 33.4512 11.9409C33.4512 11.3081 33.7026 10.7011 34.1501 10.2536C34.5976 9.80609 35.2045 9.55469 35.8374 9.55469ZM35.8374 12.6833C35.9858 12.6833 36.1309 12.6393 36.2543 12.5569C36.3777 12.4744 36.4738 12.3572 36.5306 12.2201C36.5874 12.083 36.6023 11.9321 36.5733 11.7866C36.5444 11.641 36.4729 11.5073 36.368 11.4024C36.263 11.2975 36.1293 11.226 35.9838 11.197C35.8382 11.1681 35.6874 11.183 35.5503 11.2397C35.4132 11.2965 35.296 11.3927 35.2135 11.5161C35.1311 11.6395 35.0871 11.7846 35.0871 11.933C35.0871 12.132 35.1661 12.3228 35.3068 12.4635C35.4476 12.6043 35.6384 12.6833 35.8374 12.6833Z" fill="#FFBCB0"/>
    <path d="M8.11866 83.8359C8.59061 83.8359 9.05197 83.9759 9.44438 84.2381C9.83679 84.5003 10.1426 84.873 10.3232 85.309C10.5039 85.745 10.5511 86.2248 10.459 86.6877C10.367 87.1506 10.1397 87.5758 9.80598 87.9095C9.47226 88.2432 9.04707 88.4705 8.58419 88.5626C8.1213 88.6546 7.64151 88.6074 7.20548 88.4268C6.76946 88.2462 6.39678 87.9403 6.13457 87.5479C5.87237 87.1555 5.73242 86.6941 5.73242 86.2222C5.73242 85.5893 5.98383 84.9823 6.43133 84.5348C6.87884 84.0873 7.48579 83.8359 8.11866 83.8359ZM8.11866 86.9672C8.26717 86.9677 8.4125 86.9242 8.53624 86.842C8.65998 86.7599 8.75657 86.6429 8.81377 86.5058C8.87097 86.3688 8.8862 86.2178 8.85755 86.0721C8.8289 85.9264 8.75765 85.7924 8.65282 85.6872C8.54798 85.582 8.41429 85.5103 8.26867 85.4811C8.12305 85.452 7.97204 85.4667 7.83478 85.5234C7.69752 85.5801 7.58018 85.6763 7.49761 85.7997C7.41504 85.9232 7.37097 86.0683 7.37097 86.2169C7.37097 86.4154 7.44966 86.6059 7.5898 86.7465C7.72995 86.8871 7.92011 86.9665 8.11866 86.9672Z" fill="#FFBCB0"/>
    <path d="M30.163 74.6014C29.5068 74.2828 28.9199 73.8378 28.4359 73.292C27.9518 72.7463 27.5802 72.1104 27.3423 71.4208C27.1044 70.7312 27.0049 70.0014 27.0494 69.2733C27.0939 68.5452 27.2816 67.833 27.6018 67.1776L31.8837 58.375V75.4313L30.163 74.6014Z" fill="#FFBCB0"/>
    <path d="M41.4717 37.2673L45.6953 28.5867C46.0134 27.93 46.4581 27.3426 47.0037 26.8582C47.5494 26.3738 48.1854 26.0019 48.8752 25.7639C49.565 25.5259 50.295 25.4266 51.0233 25.4714C51.7516 25.5163 52.4638 25.7046 53.1192 26.0254L76.2312 37.2673H41.4717Z" fill="#FFBCB0"/>
    <path d="M94.437 104.567C93.5979 104.568 92.7698 104.377 92.0163 104.007L68.9043 92.7656H103.664L99.4402 101.446C98.9836 102.383 98.2729 103.172 97.3891 103.724C96.5054 104.276 95.4842 104.568 94.4423 104.567H94.437Z" fill="#FFBCB0"/>
    <path d="M107.694 37.2734H37.438C34.3732 37.2734 31.8887 39.758 31.8887 42.8228V87.2094C31.8887 90.2742 34.3732 92.7587 37.438 92.7587H107.694C110.759 92.7587 113.243 90.2742 113.243 87.2094V42.8228C113.243 39.758 110.759 37.2734 107.694 37.2734Z" fill="white"/>
    <path d="M113.246 54.6016L114.964 55.4367C116.286 56.0841 117.298 57.2284 117.778 58.6196C118.259 60.0107 118.169 61.5355 117.528 62.8606L113.246 71.6631V54.6016Z" fill="#FFBCB0"/>
    <path d="M42.2651 85.0126C41.7429 85.0126 41.2257 84.9097 40.7432 84.7098C40.2607 84.51 39.8222 84.217 39.4529 83.8477C39.0836 83.4784 38.7907 83.04 38.5908 82.5575C38.391 82.075 38.2881 81.5578 38.2881 81.0355V77.4217C38.3384 73.793 39.8152 70.3299 42.399 67.7816C44.9829 65.2334 48.4661 63.8047 52.0951 63.8047C55.7242 63.8047 59.2074 65.2334 61.7912 67.7816C64.3751 70.3299 65.8518 73.793 65.9021 77.4217V81.0408C65.9021 82.0956 65.4831 83.1072 64.7373 83.853C63.9914 84.5989 62.9798 85.0179 61.9251 85.0179L42.2651 85.0126Z" fill="#DBDBDB"/>
    <path d="M52.4609 63.455C57.6217 63.2568 61.6447 58.9124 61.4464 53.7515C61.2482 48.5907 56.9038 44.5678 51.7429 44.766C46.5821 44.9643 42.5592 49.3087 42.7574 54.4695C42.9557 59.6303 47.3001 63.6533 52.4609 63.455Z" fill="#F5F5F5"/>
    <g style="mix-blend-mode:multiply">
      <path d="M119.69 59.4828C119.417 58.6924 118.992 57.9634 118.438 57.3374C117.884 56.7114 117.212 56.2007 116.46 55.8345L115.914 55.5694L115.195 55.2194V43.9564C115.196 42.4224 114.642 40.9399 113.636 39.7819C112.63 38.6239 111.239 37.8682 109.72 37.6541C109.425 37.6114 109.128 37.5902 108.83 37.5905H77.5592L76.899 37.2696L75.2207 36.453L74.534 36.119L54.6142 26.4255C54.0152 26.1323 53.3736 25.9355 52.7132 25.8422C52.4215 25.8019 52.1274 25.7815 51.833 25.7812C50.6386 25.7833 49.4688 26.1203 48.4564 26.754C47.4441 27.3876 46.6297 28.2925 46.106 29.3659L42.6592 36.453L42.4551 36.8719L42.2642 37.2643L42.1104 37.5852H38.5734C36.8858 37.5852 35.2673 38.2556 34.0739 39.4489C32.8806 40.6423 32.2101 42.2608 32.2101 43.9485V59.3052L31.8893 59.9654L31.0754 61.6331L30.7413 62.3225L28.0104 67.9381C27.4538 69.0755 27.2506 70.3536 27.4271 71.6076C27.486 72.0143 27.5827 72.4146 27.7161 72.8033C27.9421 73.4567 28.2725 74.0691 28.6944 74.6169C29.2941 75.3944 30.0666 76.0217 30.9507 76.449L31.0754 76.5099L31.4969 76.7141L31.892 76.9077L32.2128 77.0641V88.3271C32.2124 88.6243 32.2337 88.9212 32.2764 89.2153C32.4926 90.7336 33.2488 92.1232 34.4063 93.1293C35.5638 94.1353 37.0451 94.6905 38.5787 94.6931H69.8437L72.8689 96.1646L88.4219 103.732L91.7759 105.375H99.213C99.8478 104.934 100.398 104.382 100.836 103.745C101.012 103.485 101.17 103.213 101.308 102.931L104.959 95.4248L105.308 94.7063H108.83C110.517 94.7063 112.136 94.0359 113.329 92.8425C114.522 91.6492 115.193 90.0307 115.193 88.343V72.9863L116.656 69.9611L119.39 64.3455C119.755 63.5936 119.969 62.7772 120.018 61.9429C120.068 61.1086 119.952 60.2726 119.679 59.4828H119.69ZM113.565 88.343C113.563 89.598 113.063 90.801 112.175 91.6882C111.288 92.5753 110.085 93.0743 108.83 93.0757H38.5681C37.9454 93.0772 37.3287 92.9537 36.7546 92.7125C35.8921 92.3525 35.1551 91.7458 34.6362 90.9684C34.1173 90.191 33.8397 89.2777 33.8381 88.343V43.9564C33.8395 42.7012 34.3389 41.4978 35.2268 40.6105C36.1146 39.7232 37.3182 39.2244 38.5734 39.2237H108.835C109.812 39.2224 110.766 39.5254 111.563 40.0907C112.183 40.5271 112.689 41.106 113.038 41.7788C113.387 42.4515 113.57 43.1984 113.57 43.9564L113.565 88.343ZM115.201 57.0383L115.747 57.3034C115.976 57.4136 116.195 57.5431 116.402 57.6905C117.319 58.3392 117.977 59.2926 118.257 60.3807C118.537 61.4688 118.422 62.6211 117.932 63.6322L115.201 69.2478V57.0383ZM44.0697 37.2643L44.4648 36.453L47.5616 30.0897C47.8333 29.5303 48.2126 29.03 48.6778 28.6173C49.143 28.2046 49.6849 27.8876 50.2727 27.6844C50.8604 27.4813 51.4825 27.396 52.1032 27.4334C52.724 27.4708 53.3313 27.6301 53.8904 27.9023L71.4823 36.4398L73.1526 37.2511L73.8049 37.5693H43.9133L44.0671 37.2511L44.0697 37.2643ZM31.8734 63.7118L32.1916 63.0595V75.2691L31.8734 75.1153L31.6481 75.0066C31.4435 74.9086 31.2467 74.7952 31.0595 74.6672C30.5867 74.3482 30.1761 73.9457 29.8478 73.4794C29.5928 73.115 29.3894 72.717 29.2433 72.2969C29.0388 71.7092 28.9528 71.0868 28.9901 70.4656C29.0274 69.8445 29.1874 69.2368 29.4607 68.6778L31.0515 65.4007L31.8734 63.7118ZM93.7644 104.522C93.6796 104.487 93.5947 104.447 93.5125 104.408L92.1524 103.747L73.5928 94.7143H103.5L99.8387 102.22C99.5555 102.806 99.1537 103.326 98.6588 103.747C97.9935 104.315 97.1844 104.687 96.3207 104.824C95.457 104.961 94.5724 104.856 93.7644 104.522Z" fill="#DBDBDB"/>
    </g>
    <g style="mix-blend-mode:multiply">
      <path d="M63.5782 68.2168C63.3899 68.0259 63.1937 67.843 62.9949 67.6653C61.3849 66.2148 59.4707 65.1431 57.3925 64.5288C57.6577 64.4042 57.9387 64.2636 58.188 64.1205C59.751 63.2463 61.0554 61.9748 61.9692 60.4346C62.883 58.8945 63.3739 57.1403 63.3921 55.3495C63.4103 53.5587 62.9552 51.7949 62.0729 50.2365C61.1905 48.6781 59.9122 47.3803 58.3673 46.4746C56.8224 45.5688 55.0657 45.0871 53.2748 45.0782C51.484 45.0694 49.7226 45.5337 48.1688 46.4241C46.615 47.3146 45.324 48.5996 44.4263 50.1493C43.5286 51.6989 43.0561 53.4581 43.0566 55.249C43.0562 55.8716 43.1139 56.493 43.2289 57.1049C43.5532 58.8561 44.3343 60.4906 45.4932 61.8429C46.0479 62.4933 46.6821 63.0714 47.381 63.5637C47.6737 63.7706 47.9773 63.9618 48.2904 64.1364C48.5449 64.2778 48.8047 64.4077 49.0699 64.5261C46.0464 65.4246 43.3939 67.2755 41.5073 69.8032C39.6207 72.331 38.6009 75.4004 38.5996 78.5545V82.1736C38.5995 82.3348 38.6075 82.4958 38.6235 82.6562C38.7432 83.838 39.2979 84.9332 40.1799 85.7289C41.0618 86.5246 42.2081 86.9641 43.3959 86.962H63.0691C63.6986 86.9631 64.3222 86.8401 64.9042 86.6002C65.4862 86.3602 66.0152 86.008 66.4611 85.5636C66.907 85.1192 67.261 84.5914 67.5028 84.0102C67.7447 83.429 67.8697 82.8058 67.8708 82.1763V78.5572C67.8747 76.6354 67.4973 74.7319 66.7604 72.9569C66.0236 71.182 64.942 69.5708 63.5782 68.2168ZM66.2296 82.1763C66.2289 83.0131 65.8963 83.8155 65.3048 84.4075C64.7134 84.9995 63.9112 85.3327 63.0744 85.3341H43.4012C42.9134 85.3345 42.4322 85.221 41.996 85.0027C41.4445 84.7269 40.9842 84.2979 40.6703 83.7671C40.3881 83.2846 40.2398 82.7354 40.2408 82.1763V78.5572C40.2405 76.0559 40.9622 73.6077 42.3193 71.5067C43.6764 69.4056 45.6112 67.7409 47.8913 66.7126C50.1714 65.6843 52.6998 65.336 55.173 65.7096C57.6462 66.0832 59.959 67.1628 61.8336 68.8187C62.0351 68.9963 62.2286 69.1793 62.4195 69.3702C63.6287 70.5746 64.5875 72.0064 65.2405 73.5832C65.8935 75.16 66.2279 76.8505 66.2243 78.5572L66.2296 82.1763ZM50.4539 63.3171C50.1834 63.2249 49.9179 63.1187 49.6585 62.9989C48.5002 62.4609 47.4766 61.671 46.6624 60.6869C45.3099 59.0505 44.6161 56.9686 44.7164 54.8479C44.8168 52.7273 45.7042 50.7203 47.2052 49.2189C48.7063 47.7175 50.7131 46.8297 52.8337 46.7288C54.9544 46.628 57.0364 47.3214 58.6731 48.6736C59.8426 49.6395 60.7334 50.8996 61.2539 52.3243C61.7744 53.749 61.9056 55.2867 61.6342 56.7789C61.3627 58.2712 60.6984 59.6642 59.7096 60.8143C58.7207 61.9644 57.4432 62.8302 56.0085 63.3224C55.371 63.5415 54.7097 63.684 54.0385 63.7466C53.7734 63.7731 53.5083 63.7837 53.2431 63.7837C52.6851 63.7839 52.1283 63.7297 51.5807 63.622C51.1984 63.5469 50.8219 63.445 50.4539 63.3171Z" fill="#DBDBDB"/>
    </g>
    <path d="M104.019 46.0156H88.2861C87.8937 46.0156 87.5174 46.1715 87.24 46.4489C86.9625 46.7264 86.8066 47.1027 86.8066 47.4951C86.8066 47.8875 86.9625 48.2638 87.24 48.5412C87.5174 48.8187 87.8937 48.9746 88.2861 48.9746H104.014C104.406 48.9746 104.783 48.8187 105.06 48.5412C105.338 48.2638 105.494 47.8875 105.494 47.4951C105.494 47.1027 105.338 46.7264 105.06 46.4489C104.783 46.1715 104.406 46.0156 104.014 46.0156H104.019Z" fill="#FFBCB0"/>
    <path d="M104.019 54.9545H72.563C72.1811 54.9706 71.8202 55.1337 71.5557 55.4096C71.2912 55.6856 71.1436 56.053 71.1436 56.4352C71.1436 56.8175 71.2912 57.1849 71.5557 57.4609C71.8202 57.7368 72.1811 57.8999 72.563 57.916H104.019C104.219 57.9245 104.418 57.8924 104.605 57.8218C104.792 57.7512 104.963 57.6435 105.107 57.5052C105.251 57.3668 105.366 57.2007 105.445 57.0169C105.523 56.833 105.564 56.6352 105.564 56.4352C105.564 56.2353 105.523 56.0375 105.445 55.8536C105.366 55.6697 105.251 55.5036 105.107 55.3653C104.963 55.227 104.792 55.1192 104.605 55.0486C104.418 54.978 104.219 54.946 104.019 54.9545Z" fill="#FFBCB0"/>
    <path d="M104.019 63.8984H72.5635C72.1711 63.8984 71.7948 64.0543 71.5173 64.3318C71.2399 64.6092 71.084 64.9855 71.084 65.3779C71.084 65.7703 71.2399 66.1466 71.5173 66.424C71.7948 66.7015 72.1711 66.8574 72.5635 66.8574H104.019C104.412 66.8574 104.788 66.7015 105.065 66.424C105.343 66.1466 105.499 65.7703 105.499 65.3779C105.499 64.9855 105.343 64.6092 105.065 64.3318C104.788 64.0543 104.412 63.8984 104.019 63.8984Z" fill="#FFBCB0"/>
    <path d="M104.019 72.8281H72.5635C72.1711 72.8281 71.7948 72.984 71.5173 73.2615C71.2399 73.5389 71.084 73.9152 71.084 74.3076C71.084 74.7 71.2399 75.0763 71.5173 75.3537C71.7948 75.6312 72.1711 75.7871 72.5635 75.7871H104.019C104.412 75.7871 104.788 75.6312 105.065 75.3537C105.343 75.0763 105.499 74.7 105.499 74.3076C105.499 73.9152 105.343 73.5389 105.065 73.2615C104.788 72.984 104.412 72.8281 104.019 72.8281Z" fill="#FFBCB0"/>
    <path d="M88.2856 81.7891H72.563C72.1811 81.8052 71.8202 81.9683 71.5557 82.2442C71.2912 82.5202 71.1436 82.8876 71.1436 83.2699C71.1436 83.6521 71.2912 84.0195 71.5557 84.2955C71.8202 84.5714 72.1811 84.7345 72.563 84.7506H88.2856C88.6675 84.7345 89.0284 84.5714 89.2929 84.2955C89.5574 84.0195 89.7051 83.6521 89.7051 83.2699C89.7051 82.8876 89.5574 82.5202 89.2929 82.2442C89.0284 81.9683 88.6675 81.8052 88.2856 81.7891Z" fill="#FFBCB0"/>
    <path d="M32.2064 55.8435L31.8856 56.5037L31.069 58.1873L29.5975 61.2125L26.8666 66.8281C26.2264 68.142 26.058 69.6362 26.3897 71.0596C26.7214 72.483 27.533 73.7488 28.6881 74.6443C29.0363 74.9136 29.4112 75.1464 29.807 75.339L30.3531 75.6041L31.069 75.9541L31.8856 76.3492L32.6969 76.7442V54.8359L32.2064 55.8435ZM28.1154 71.1551C27.9115 70.5678 27.8257 69.9458 27.863 69.3252C27.9003 68.7045 28.06 68.0974 28.3328 67.5387L31.0664 61.9204V74.13L30.5202 73.8648C30.2892 73.7527 30.0676 73.6224 29.8573 73.4751C29.0469 72.9045 28.4372 72.0926 28.1154 71.1551Z" fill="#5C5B5B"/>
    <path d="M78.7594 37.5951L78.0992 37.2743L76.4209 36.4576L73.3957 34.9861L53.4679 25.2927C52.6031 24.8686 51.6526 24.6482 50.6893 24.6484C49.4954 24.6492 48.3256 24.9848 47.3128 25.6171C46.3 26.2493 45.4848 27.1529 44.9597 28.2251L41.3061 35.7312L40.9588 36.4497L40.5611 37.2663L40.4046 37.5871L40.166 38.0776H79.7669L78.7594 37.5951ZM72.6824 36.4444H42.775L46.4259 28.9357C46.6985 28.3769 47.0786 27.8773 47.5444 27.4655C48.0102 27.0536 48.5526 26.7376 49.1406 26.5354C49.7286 26.3333 50.3506 26.249 50.9712 26.2873C51.5918 26.3257 52.1988 26.4859 52.7574 26.7589L72.6824 36.4444Z" fill="#5C5B5B"/>
    <path d="M65.3594 91.948L67.0297 92.7593L67.6899 93.0801L68.7054 93.5759L71.7306 95.0395L89.6115 103.752L91.6477 104.741C92.516 105.165 93.4705 105.384 94.437 105.38C95.6325 105.382 96.8042 105.046 97.818 104.413C98.8319 103.779 99.6467 102.873 100.169 101.798L103.82 94.2918L104.17 93.5733L104.411 93.0775L104.568 92.7566L104.963 91.9453L65.3594 91.948ZM92.3742 103.275L74.785 94.7186L72.4465 93.5786H102.354L101.8 94.7186L98.7004 101.082C98.4289 101.641 98.0499 102.142 97.585 102.554C97.12 102.967 96.5783 103.284 95.9907 103.487C95.4032 103.69 94.7814 103.776 94.1608 103.738C93.5402 103.701 92.9331 103.541 92.3742 103.269V103.275Z" fill="#5C5B5B"/>
    <path d="M112.724 38.9242C112.129 38.1547 111.365 37.5318 110.492 37.1034C109.619 36.6751 108.659 36.4526 107.686 36.4531H37.4248C35.7372 36.4531 34.1186 37.1235 32.9253 38.3169C31.7319 39.5102 31.0615 41.1288 31.0615 42.8164V87.2057C31.0615 88.8933 31.7319 90.5119 32.9253 91.7052C34.1186 92.8986 35.7372 93.569 37.4248 93.569H107.686C109.374 93.569 110.992 92.8986 112.186 91.7052C113.379 90.5119 114.049 88.8933 114.049 87.2057V42.8191C114.052 41.4096 113.586 40.0393 112.724 38.9242ZM34.7098 91.0714C34.0898 90.6352 33.5838 90.0563 33.2345 89.3835C32.8852 88.7107 32.7028 87.9638 32.7027 87.2057V42.8191C32.7048 41.5641 33.2045 40.3611 34.0922 39.4739C34.9798 38.5868 36.1831 38.0878 37.4381 38.0864H107.699C108.954 38.0878 110.158 38.5868 111.045 39.4739C111.933 40.3611 112.433 41.5641 112.435 42.8191V87.2057C112.433 88.4607 111.933 89.6637 111.045 90.5508C110.158 91.438 108.954 91.937 107.699 91.9384H37.4381C36.4607 91.9397 35.5071 91.6367 34.7098 91.0714Z" fill="#5C5B5B"/>
    <path d="M118.552 58.3582C118.326 57.701 117.994 57.0855 117.568 56.5367C117.491 56.436 117.414 56.3405 117.332 56.2451C116.772 55.604 116.088 55.082 115.322 54.7099L115.195 54.6489L114.776 54.4448L114.058 54.0948L113.564 53.8562L113.241 53.6997L112.43 53.3047V75.2077L113.241 73.54L113.564 72.8798L114.058 71.8643L115.529 68.8364L118.263 63.2314C118.628 62.4796 118.841 61.6632 118.891 60.8289C118.941 59.9945 118.825 59.1586 118.552 58.3688V58.3582ZM114.063 55.9136L114.609 56.1788C115.737 56.7291 116.601 57.7046 117.011 58.8912C117.42 60.0778 117.342 61.3785 116.794 62.5076L115.203 65.7847L114.066 68.1232L114.063 55.9136Z" fill="#5C5B5B"/>
    <path d="M62.9943 67.6673C62.8167 67.4685 62.6311 67.2723 62.4402 67.0814C60.7211 65.3516 58.5937 64.0831 56.2546 63.3933L56.0106 63.3244C55.6262 63.2183 55.2391 63.1282 54.8467 63.0592C53.1344 62.7387 51.3791 62.7207 49.6606 63.0062L49.3557 63.0592C48.8784 63.1494 48.4091 63.2625 47.9478 63.3986C47.7622 63.4543 47.5793 63.5126 47.3963 63.5736C44.5044 64.5594 41.9933 66.425 40.2147 68.9092C38.4361 71.3934 37.479 74.3717 37.4775 77.427V81.0435C37.4782 82.313 37.983 83.5302 38.881 84.4277C39.7789 85.3251 40.9964 85.8292 42.2659 85.8292H61.9364C63.2055 85.8278 64.4222 85.3232 65.3199 84.4261C66.2175 83.529 66.7227 82.3125 66.7248 81.0435V77.4217C66.7353 73.8199 65.4055 70.343 62.9943 67.6673ZM40.6751 83.7691C40.1988 83.491 39.8035 83.0931 39.5287 82.615C39.2538 82.1368 39.1088 81.595 39.1081 81.0435V77.4217C39.1081 73.9761 40.4769 70.6716 42.9133 68.2352C45.3497 65.7987 48.6542 64.43 52.0999 64.43C53.8066 64.4257 55.4973 64.7597 57.0742 65.4127C58.6511 66.0658 60.0829 67.0249 61.2869 68.2347C61.4778 68.4256 61.6607 68.6218 61.8383 68.8207C63.9422 71.1909 65.1002 74.2525 65.0916 77.4217V81.0435C65.0902 81.8798 64.7573 82.6815 64.1659 83.2729C63.5745 83.8643 62.7728 84.1972 61.9364 84.1986H42.2659C41.7069 84.1996 41.1577 84.0514 40.6751 83.7691Z" fill="#5C5B5B"/>
    <path d="M59.8343 47.5218C58.9285 46.442 57.808 45.5625 56.5441 44.9391C55.2801 44.3156 53.9003 43.9619 52.4923 43.9003C51.0843 43.8388 49.6789 44.0707 48.3654 44.5815C47.0518 45.0923 45.8589 45.8707 44.8623 46.8672C43.8658 47.8638 43.0874 49.0567 42.5766 50.3703C42.0659 51.6838 41.8339 53.0892 41.8954 54.4972C41.957 55.9052 42.3107 57.285 42.9342 58.549C43.5576 59.8129 44.4371 60.9334 45.5169 61.8392C47.3477 63.4168 49.6834 64.286 52.1002 64.289C54.0427 64.2901 55.9447 63.7344 57.5811 62.6879C59.2175 61.6414 60.5197 60.1478 61.3335 58.3841C62.1473 56.6203 62.4386 54.6603 62.1729 52.7361C61.9072 50.812 61.0956 49.0042 59.8343 47.5271V47.5218ZM52.1002 45.5809C53.7875 45.5815 55.4367 46.0822 56.8394 47.02C58.2421 47.9577 59.3353 49.2903 59.9807 50.8492C60.6262 52.4081 60.7949 54.1234 60.4656 55.7782C60.1363 57.4331 59.3238 58.9531 58.1307 60.1462C56.9376 61.3393 55.4176 62.1518 53.7628 62.4811C52.1079 62.8104 50.3926 62.6417 48.8337 61.9962C47.2748 61.3508 45.9422 60.2576 45.0045 58.8549C44.0668 57.4522 43.566 55.803 43.5655 54.1157C43.5641 52.9945 43.7839 51.8841 44.2123 50.8479C44.6407 49.8118 45.2693 48.8704 46.0621 48.0776C46.8549 47.2848 47.7963 46.6562 48.8325 46.2278C49.8686 45.7994 50.979 45.5795 52.1002 45.5809Z" fill="#5C5B5B"/>
    <path d="M121.378 104.564C121.378 104.781 121.291 104.988 121.138 105.141C120.985 105.295 120.777 105.381 120.561 105.381H26.6705C26.4623 105.369 26.2666 105.278 26.1234 105.126C25.9802 104.974 25.9004 104.774 25.9004 104.565C25.9004 104.357 25.9802 104.156 26.1234 104.005C26.2666 103.853 26.4623 103.762 26.6705 103.75H120.561C120.668 103.75 120.774 103.77 120.873 103.811C120.972 103.852 121.062 103.912 121.138 103.987C121.214 104.063 121.274 104.153 121.315 104.252C121.356 104.351 121.378 104.457 121.378 104.564Z" fill="#5C5B5B"/>
    <path d="M23.3059 105.383H19.594C19.3774 105.383 19.1697 105.297 19.0165 105.144C18.8634 104.991 18.7773 104.783 18.7773 104.567C18.7773 104.35 18.8634 104.142 19.0165 103.989C19.1697 103.836 19.3774 103.75 19.594 103.75H23.3059C23.5225 103.75 23.7302 103.836 23.8833 103.989C24.0365 104.142 24.1225 104.35 24.1225 104.567C24.1225 104.783 24.0365 104.991 23.8833 105.144C23.7302 105.297 23.5225 105.383 23.3059 105.383Z" fill="#5C5B5B"/>
    <path d="M41.6067 101.383H37.8948C37.6782 101.383 37.4705 101.297 37.3173 101.144C37.1642 100.991 37.0781 100.783 37.0781 100.567C37.0781 100.35 37.1642 100.142 37.3173 99.9892C37.4705 99.836 37.6782 99.75 37.8948 99.75H41.6067C41.8233 99.75 42.031 99.836 42.1841 99.9892C42.3373 100.142 42.4233 100.35 42.4233 100.567C42.4233 100.783 42.3373 100.991 42.1841 101.144C42.031 101.297 41.8233 101.383 41.6067 101.383Z" fill="#5C5B5B"/>
    <path d="M34.5246 101.383H30.8127C30.5961 101.383 30.3884 101.297 30.2353 101.144C30.0821 100.991 29.9961 100.783 29.9961 100.567C29.9961 100.35 30.0821 100.142 30.2353 99.9892C30.3884 99.836 30.5961 99.75 30.8127 99.75H34.5246C34.7412 99.75 34.9489 99.836 35.1021 99.9892C35.2552 100.142 35.3413 100.35 35.3413 100.567C35.3413 100.783 35.2552 100.991 35.1021 101.144C34.9489 101.297 34.7412 101.383 34.5246 101.383Z" fill="#5C5B5B"/>
    <path d="M109.343 101.383H105.631C105.524 101.383 105.418 101.362 105.319 101.321C105.219 101.28 105.129 101.22 105.054 101.144C104.978 101.068 104.918 100.978 104.877 100.879C104.836 100.78 104.814 100.674 104.814 100.567C104.814 100.459 104.836 100.353 104.877 100.254C104.918 100.155 104.978 100.065 105.054 99.9892C105.129 99.9133 105.219 99.8532 105.319 99.8122C105.418 99.7711 105.524 99.75 105.631 99.75H109.343C109.45 99.75 109.556 99.7711 109.656 99.8122C109.755 99.8532 109.845 99.9133 109.92 99.9892C109.996 100.065 110.056 100.155 110.097 100.254C110.138 100.353 110.16 100.459 110.16 100.567C110.16 100.674 110.138 100.78 110.097 100.879C110.056 100.978 109.996 101.068 109.92 101.144C109.845 101.22 109.755 101.28 109.656 101.321C109.556 101.362 109.45 101.383 109.343 101.383Z" fill="#5C5B5B"/>
    <path d="M116.425 101.383H112.713C112.497 101.383 112.289 101.297 112.136 101.144C111.983 100.991 111.896 100.783 111.896 100.567C111.896 100.35 111.983 100.142 112.136 99.9892C112.289 99.836 112.497 99.75 112.713 99.75H116.425C116.642 99.75 116.849 99.836 117.002 99.9892C117.156 100.142 117.242 100.35 117.242 100.567C117.242 100.783 117.156 100.991 117.002 101.144C116.849 101.297 116.642 101.383 116.425 101.383Z" fill="#5C5B5B"/>
    <path d="M127.642 105.383H123.93C123.823 105.383 123.716 105.362 123.617 105.321C123.518 105.28 123.428 105.22 123.352 105.144C123.277 105.068 123.216 104.978 123.175 104.879C123.134 104.78 123.113 104.674 123.113 104.567C123.113 104.459 123.134 104.353 123.175 104.254C123.216 104.155 123.277 104.065 123.352 103.989C123.428 103.913 123.518 103.853 123.617 103.812C123.716 103.771 123.823 103.75 123.93 103.75H127.642C127.749 103.75 127.855 103.771 127.954 103.812C128.053 103.853 128.143 103.913 128.219 103.989C128.295 104.065 128.355 104.155 128.396 104.254C128.437 104.353 128.458 104.459 128.458 104.567C128.458 104.674 128.437 104.78 128.396 104.879C128.355 104.978 128.295 105.068 128.219 105.144C128.143 105.22 128.053 105.28 127.954 105.321C127.855 105.362 127.749 105.383 127.642 105.383Z" fill="#5C5B5B"/>
  </g>
  <defs>
    <clipPath id="clip0_11492_115801">
      <rect width="147.864" height="130.002" fill="white" transform="translate(0.135742)"/>
    </clipPath>
  </defs>
</svg>
